<svg width="200" height="200" xmlns="http://www.w3.org/2000/svg">
  <defs>
    <pattern id="beta-pattern" patternUnits="userSpaceOnUse" width="200" height="200">
      <rect width="200" height="200" fill="#F5F5F5" />
      <path d="M50,50 L70,40 L90,50 L70,60 Z" fill="#F99FC9" opacity="0.2" />
      <path d="M150,50 L170,40 L190,50 L170,60 Z" fill="#F99FC9" opacity="0.2" />
      <path d="M50,150 L70,140 L90,150 L70,160 Z" fill="#F99FC9" opacity="0.2" />
      <path d="M150,150 L170,140 L190,150 L170,160 Z" fill="#F99FC9" opacity="0.2" />
      <path d="M0,100 L20,90 L40,100 L20,110 Z" fill="#ABCAE9" opacity="0.2" />
      <path d="M100,0 L120,-10 L140,0 L120,10 Z" fill="#ABCAE9" opacity="0.2" />
      <path d="M100,100 L120,90 L140,100 L120,110 Z" fill="#ABCAE9" opacity="0.2" />
      <path d="M100,200 L120,190 L140,200 L120,210 Z" fill="#ABCAE9" opacity="0.2" />
      <path d="M200,100 L220,90 L240,100 L220,110 Z" fill="#ABCAE9" opacity="0.2" />
    </pattern>
  </defs>
  <rect width="200" height="200" fill="url(#beta-pattern)" />
</svg>