<svg id="svg" version="1.1" xmlns="http://www.w3.org/2000/svg" xmlns:xlink="http://www.w3.org/1999/xlink" width="400" height="400" viewBox="0, 0, 400,400"><g id="svgg"><path id="path0" d="M187.163 0.254 C 65.139 8.848,-20.402 121.064,3.988 240.552 C 21.047 324.126,90.580 388.217,175.405 398.552 C 283.825 411.762,382.907 335.950,398.054 228.192 C 414.963 107.892,322.744 0.849,201.560 0.113 C 195.291 0.074,188.812 0.138,187.163 0.254 M210.078 29.275 C 309.340 35.461,382.195 123.556,369.517 222.066 C 359.645 298.767,298.767 359.645,222.066 369.517 C 119.522 382.714,29.049 303.204,29.035 199.876 C 29.022 101.601,112.245 23.178,210.078 29.275 M273.305 81.505 C 261.223 82.168,248.222 85.460,234.455 91.343 C 196.820 107.426,179.866 129.837,179.848 163.527 C 179.843 172.562,179.816 172.291,182.250 187.070 C 182.630 189.379,180.536 188.998,179.297 186.533 C 177.549 183.054,176.953 177.706,176.720 163.407 C 176.523 151.367,176.263 147.657,175.376 144.230 C 173.373 136.493,172.846 132.270,173.572 129.772 C 175.093 124.541,171.012 114.110,165.187 108.342 C 163.533 106.704,160.155 104.192,159.921 104.426 C 159.866 104.481,160.354 106.680,161.006 109.312 C 163.398 118.968,165.133 131.355,163.441 126.695 C 160.601 118.876,154.696 111.683,148.590 108.605 C 147.897 108.256,147.331 108.040,147.331 108.125 C 147.331 108.210,147.915 109.805,148.630 111.669 C 151.912 120.227,153.809 127.497,153.809 131.511 L 153.809 132.693 152.925 132.693 C 151.545 132.693,150.025 131.800,147.810 129.687 C 138.536 120.838,132.854 118.554,131.168 123.000 C 130.343 125.175,130.018 125.667,129.040 126.216 C 127.127 127.292,123.335 127.094,121.620 125.828 C 119.463 124.237,114.778 123.468,107.499 123.509 C 100.129 123.551,99.584 123.826,102.873 125.844 C 105.944 127.728,105.699 127.086,105.699 133.243 C 105.699 141.445,105.062 140.855,113.901 140.841 C 119.922 140.832,122.223 140.723,126.819 140.230 C 129.051 139.991,132.857 141.114,135.030 142.653 C 135.659 143.099,136.743 143.848,137.440 144.319 C 138.891 145.299,138.878 145.598,137.329 146.781 C 136.135 147.692,133.996 147.692,130.683 146.782 C 126.102 145.523,122.735 145.952,120.190 148.119 C 109.168 157.501,105.150 157.147,96.461 146.024 C 93.485 142.214,93.235 141.949,92.779 142.124 C 91.561 142.591,92.482 144.399,96.351 149.130 C 103.680 158.093,107.906 159.074,116.589 153.826 C 123.376 149.725,127.978 149.155,133.773 151.698 C 134.961 152.219,136.554 152.863,137.313 153.129 C 138.968 153.710,138.950 153.474,137.467 155.256 C 135.748 157.322,133.091 159.203,128.900 161.321 C 123.046 164.279,121.975 164.432,120.765 162.485 C 118.908 159.498,116.328 158.866,115.551 161.207 C 114.850 163.315,113.345 164.231,111.706 163.546 C 109.816 162.756,109.707 163.406,109.608 176.065 C 109.563 181.773,109.553 186.443,109.586 186.443 C 109.702 186.443,116.275 180.588,118.637 178.380 C 119.967 177.137,121.866 175.194,122.855 174.064 C 125.964 170.512,128.219 169.100,131.477 168.663 C 132.476 168.529,134.017 168.317,134.902 168.192 C 137.470 167.830,140.470 166.614,142.920 164.941 C 149.301 160.585,153.799 159.877,157.030 162.722 C 159.482 164.879,159.081 166.252,155.528 167.870 C 149.474 170.626,147.052 172.315,142.149 177.198 C 126.469 192.815,125.701 202.597,137.681 234.073 C 140.800 242.268,140.553 241.407,141.910 248.830 C 143.867 259.540,144.004 260.062,145.406 262.141 C 147.505 265.251,147.648 266.133,148.042 278.464 C 148.658 297.765,148.514 300.382,146.703 302.757 C 144.835 305.206,140.544 305.340,136.445 303.077 C 130.999 300.071,123.557 301.261,121.404 305.482 C 120.990 306.293,120.830 306.399,119.918 306.465 C 118.816 306.545,118.407 307.245,119.027 307.992 C 119.388 308.426,166.214 308.522,167.022 308.090 C 167.654 307.752,167.606 307.269,166.836 306.223 C 165.776 304.781,165.087 304.326,162.709 303.500 C 157.378 301.646,157.079 299.370,160.912 289.807 C 163.233 284.015,163.850 281.585,164.140 277.107 C 164.612 269.816,166.280 263.397,167.928 262.532 C 171.305 260.759,191.059 259.635,194.225 261.036 C 195.436 261.572,195.416 261.521,195.787 264.907 C 196.842 274.544,200.949 281.567,207.411 284.787 C 213.973 288.056,214.067 292.033,207.785 300.497 C 204.510 304.909,204.711 304.849,196.761 303.803 C 182.634 301.945,179.928 302.318,176.688 306.565 C 176.311 307.060,175.859 307.379,175.534 307.379 C 174.714 307.379,174.101 308.175,174.437 308.803 L 174.707 309.307 211.948 309.236 L 249.190 309.164 251.470 308.629 C 271.058 304.028,278.905 296.567,278.906 282.543 C 278.907 272.913,276.259 267.884,263.873 253.992 C 246.856 234.905,243.309 227.100,247.246 217.410 C 251.233 207.598,263.848 201.164,269.146 206.240 C 271.042 208.057,270.782 208.723,266.576 212.837 C 261.549 217.754,261.698 218.082,269.183 218.555 C 273.965 218.857,275.007 219.313,277.640 222.258 C 285.419 230.960,289.383 228.408,287.302 216.036 C 286.827 213.209,286.846 213.158,288.739 212.199 C 291.247 210.928,293.736 207.724,293.364 206.245 C 293.065 205.053,292.346 204.852,288.720 204.950 C 280.331 205.176,278.893 204.990,276.699 203.390 C 271.699 199.745,261.942 197.587,256.827 198.996 C 247.007 201.700,238.607 211.833,237.831 221.911 C 237.105 231.337,240.505 239.146,250.370 250.710 C 266.951 270.148,271.372 278.369,268.697 284.788 C 265.173 293.245,257.754 297.059,244.825 297.060 C 242.735 297.061,242.724 297.046,243.200 294.854 C 246.809 278.214,247.101 269.219,244.380 258.514 C 240.846 244.614,235.301 237.241,217.876 223.278 C 206.313 214.011,204.376 211.758,205.870 209.308 C 208.166 205.543,215.151 206.397,221.503 211.220 C 224.258 213.312,224.162 213.287,223.638 211.767 C 221.671 206.048,221.333 199.504,222.860 196.675 C 226.412 190.092,233.877 187.748,241.752 190.743 C 243.071 191.245,244.180 191.632,244.215 191.605 C 244.250 191.577,243.637 190.215,242.853 188.578 C 239.324 181.217,238.264 174.550,240.018 170.760 C 243.072 164.164,254.141 160.773,261.701 164.117 C 263.115 164.743,263.042 164.646,260.888 163.033 C 249.037 154.163,245.228 147.019,250.034 142.676 C 254.871 138.306,263.222 135.927,269.678 137.081 C 270.534 137.233,270.151 136.978,267.626 135.715 C 263.653 133.726,260.354 131.556,258.639 129.804 C 253.360 124.409,258.316 116.430,268.537 113.867 C 276.161 111.955,300.745 109.083,314.040 108.551 C 316.319 108.459,318.153 108.355,318.117 108.319 C 317.964 108.166,310.563 106.710,307.259 106.183 C 281.252 102.036,255.466 103.666,234.013 110.815 C 230.200 112.086,230.218 112.093,231.552 109.810 C 238.059 98.676,260.235 88.016,286.615 83.342 C 289.435 82.842,289.460 82.695,286.803 82.212 C 283.059 81.532,277.819 81.257,273.305 81.505 " stroke="none" fill="#e5e5e6" fill-rule="evenodd"></path><path id="path1" d="M191.602 29.281 C 85.593 34.786,10.469 133.297,33.150 237.058 C 48.120 305.543,104.974 358.637,174.325 368.899 C 288.463 385.787,385.787 288.463,368.899 174.325 C 356.142 88.111,278.701 24.758,191.602 29.281 M283.178 81.596 C 285.629 81.846,289.049 82.457,289.479 82.724 C 289.601 82.799,287.928 83.210,285.762 83.638 C 259.572 88.813,239.416 98.176,232.588 108.338 C 231.649 109.737,230.500 111.818,230.667 111.818 C 230.713 111.818,231.845 111.437,233.184 110.972 C 256.863 102.744,291.749 101.542,317.457 108.068 L 319.736 108.646 315.897 108.673 C 303.556 108.757,273.044 112.368,266.713 114.494 C 262.321 115.968,258.350 119.124,257.224 122.035 C 255.204 127.254,257.957 130.782,267.906 135.718 C 270.823 137.165,271.301 137.469,270.426 137.318 C 260.488 135.609,248.141 140.979,248.116 147.022 C 248.100 150.775,252.943 156.915,260.287 162.452 C 263.301 164.724,263.597 165.099,261.684 164.224 C 254.112 160.757,242.468 164.547,239.937 171.302 C 238.452 175.266,239.580 181.546,243.081 188.810 C 243.868 190.443,244.511 191.818,244.511 191.866 C 244.511 191.915,243.944 191.726,243.251 191.445 C 234.686 187.984,228.913 189.080,224.097 195.080 C 221.488 198.332,221.282 202.993,223.414 210.586 C 223.800 211.959,224.115 213.135,224.115 213.199 C 224.115 213.263,223.008 212.488,221.656 211.478 C 215.540 206.911,209.854 205.809,206.704 208.581 C 203.855 211.089,205.616 213.351,218.315 223.485 C 231.687 234.157,236.300 239.250,240.678 248.173 C 246.744 260.537,247.815 274.467,244.018 291.621 C 242.738 297.404,242.536 296.821,245.819 296.821 C 254.992 296.821,262.316 294.234,265.689 289.803 C 272.412 280.970,270.034 274.280,252.957 253.980 C 250.885 251.517,248.453 248.622,247.552 247.547 C 235.080 232.655,234.302 217.073,245.471 205.872 C 254.354 196.965,266.118 196.029,276.849 203.377 C 279.014 204.860,280.038 205.016,286.383 204.831 C 292.605 204.650,293.282 204.801,293.415 206.402 C 293.562 208.166,291.501 210.847,288.919 212.252 C 287.061 213.262,287.058 213.274,287.571 216.899 C 289.214 228.504,285.875 230.761,278.328 223.148 C 274.226 219.010,273.958 218.887,268.387 218.602 C 261.689 218.258,261.519 217.247,267.266 211.936 C 271.145 208.352,270.909 205.921,266.587 204.937 C 257.336 202.830,246.611 212.693,246.252 223.635 C 245.980 231.953,248.986 237.015,264.780 254.829 C 275.962 267.441,278.619 272.400,278.987 281.344 C 279.555 295.171,272.781 302.753,255.429 307.714 C 249.484 309.413,252.679 309.298,211.496 309.298 L 174.454 309.298 174.303 308.695 C 174.119 307.962,174.549 307.379,175.272 307.379 C 175.621 307.379,176.275 306.840,177.207 305.785 C 178.263 304.590,179.009 304.005,180.189 303.445 L 181.764 302.699 185.843 302.720 C 188.905 302.735,191.119 302.907,194.721 303.408 C 204.536 304.775,204.423 304.799,207.540 300.658 C 213.855 292.270,213.847 288.062,207.511 284.932 C 200.733 281.584,196.254 273.855,195.632 264.437 C 195.385 260.701,194.864 260.461,187.043 260.485 C 179.278 260.509,168.803 261.864,167.592 263.001 C 166.179 264.328,164.822 270.028,164.253 277.025 C 163.799 282.602,163.534 283.588,160.343 291.542 C 157.327 299.059,157.901 301.815,162.813 303.399 C 166.241 304.505,168.984 307.729,166.920 308.226 C 165.285 308.621,118.943 308.210,118.684 307.798 C 118.264 307.133,118.787 306.551,119.880 306.466 C 120.727 306.401,120.879 306.280,121.480 305.199 C 123.780 301.059,131.093 299.983,136.506 302.989 C 141.618 305.827,146.050 304.909,147.741 300.660 C 148.252 299.374,148.292 286.737,147.819 275.337 C 147.421 265.730,147.337 265.297,145.267 262.148 L 144.004 260.228 142.915 254.709 C 142.316 251.674,141.555 247.678,141.224 245.831 C 140.545 242.031,140.152 240.797,136.946 232.394 C 127.941 208.787,127.049 196.982,133.543 187.373 C 139.975 177.855,146.734 171.720,154.769 168.106 C 158.959 166.222,159.390 165.264,157.066 163.013 C 153.983 160.027,148.698 160.727,143.251 164.843 C 140.453 166.957,136.977 168.188,132.433 168.674 C 128.171 169.129,127.024 169.819,122.376 174.720 C 119.470 177.783,114.060 182.848,110.654 185.695 L 109.395 186.747 109.467 175.977 C 109.547 163.853,109.665 162.921,111.072 163.287 C 113.695 163.969,114.631 163.495,115.482 161.056 C 116.308 158.684,119.053 159.515,121.101 162.759 L 121.701 163.710 123.026 163.573 C 126.123 163.253,134.087 158.692,137.007 155.565 L 138.732 153.718 137.812 153.442 C 137.306 153.289,135.729 152.656,134.307 152.033 C 127.635 149.113,123.502 149.698,115.211 154.735 C 107.976 159.132,103.066 157.669,96.140 149.054 C 92.727 144.808,92.091 143.796,92.277 142.910 C 92.626 141.250,93.057 141.472,95.392 144.512 C 100.136 150.688,104.149 154.360,106.682 154.841 C 109.330 155.344,114.354 152.901,119.360 148.675 C 123.056 145.556,126.167 145.141,132.046 146.984 C 134.906 147.880,136.493 147.608,138.044 145.955 L 138.716 145.240 137.205 144.244 C 136.373 143.697,135.332 142.984,134.891 142.659 C 132.803 141.124,128.138 139.937,126.175 140.441 C 125.504 140.614,121.869 140.712,115.923 140.720 L 106.712 140.732 106.205 140.055 C 105.729 139.418,105.694 139.041,105.623 133.647 L 105.548 127.917 104.715 127.185 C 104.256 126.783,103.372 126.195,102.748 125.880 C 99.802 124.386,99.969 123.726,103.366 123.443 C 110.393 122.858,119.471 123.980,121.696 125.710 C 123.600 127.190,128.155 127.117,129.855 125.578 C 130.085 125.370,130.497 124.527,130.770 123.706 C 132.570 118.298,137.787 120.098,147.968 129.639 C 150.385 131.905,151.100 132.360,152.622 132.603 L 153.644 132.767 153.499 130.031 C 153.277 125.849,151.252 118.503,148.201 110.819 C 147.590 109.280,147.091 107.956,147.091 107.876 C 147.091 107.592,150.362 109.390,151.890 110.514 C 156.730 114.077,160.962 119.848,163.315 126.095 L 163.767 127.295 163.841 126.400 C 164.015 124.300,162.100 113.657,160.420 107.389 C 159.425 103.676,159.371 103.779,161.545 105.221 C 168.976 110.150,175.625 123.083,173.810 129.076 C 172.974 131.834,173.380 135.945,175.171 142.884 C 176.394 147.623,176.551 149.528,176.840 163.167 C 177.214 180.745,178.114 186.522,180.729 188.116 C 182.370 189.116,182.407 188.567,181.199 181.263 C 173.525 134.883,194.595 104.045,245.628 86.960 C 254.551 83.973,261.752 82.447,271.386 81.503 C 273.397 81.306,280.905 81.365,283.178 81.596 " stroke="none" fill="#042c6c" fill-rule="evenodd"></path><path id="path2" d="M199.392 113.437 L 198.080 114.817 199.460 113.505 C 200.219 112.784,200.840 112.163,200.840 112.126 C 200.840 111.948,200.610 112.156,199.392 113.437 M245.340 205.939 L 244.391 206.959 245.411 206.010 C 245.972 205.488,246.431 205.029,246.431 204.990 C 246.431 204.809,246.222 204.990,245.340 205.939 M322.604 318.956 L 321.656 319.976 322.675 319.027 C 323.624 318.145,323.806 317.936,323.624 317.936 C 323.585 317.936,323.126 318.395,322.604 318.956 M318.765 322.795 L 317.816 323.815 318.836 322.867 C 319.397 322.345,319.856 321.886,319.856 321.847 C 319.856 321.665,319.647 321.847,318.765 322.795 " stroke="none" fill="#7484a4" fill-rule="evenodd"></path><path id="path3" d="M192.384 29.204 C 192.683 29.261,193.115 29.259,193.344 29.199 C 193.574 29.139,193.329 29.092,192.801 29.095 C 192.274 29.097,192.086 29.147,192.384 29.204 M206.659 29.200 C 206.890 29.260,207.268 29.260,207.499 29.200 C 207.729 29.139,207.540 29.090,207.079 29.090 C 206.617 29.090,206.428 29.139,206.659 29.200 M78.939 79.124 L 76.665 81.464 79.004 79.189 C 81.177 77.076,81.453 76.785,81.279 76.785 C 81.243 76.785,80.191 77.837,78.939 79.124 M273.365 81.509 C 273.596 81.569,273.974 81.569,274.205 81.509 C 274.436 81.449,274.247 81.399,273.785 81.399 C 273.323 81.399,273.134 81.449,273.365 81.509 M279.844 81.509 C 280.075 81.569,280.453 81.569,280.684 81.509 C 280.915 81.449,280.726 81.399,280.264 81.399 C 279.802 81.399,279.613 81.449,279.844 81.509 M272.406 104.065 C 272.636 104.125,273.014 104.125,273.245 104.065 C 273.476 104.004,273.287 103.955,272.825 103.955 C 272.364 103.955,272.175 104.004,272.406 104.065 M285.246 104.069 C 285.544 104.126,285.976 104.124,286.206 104.064 C 286.435 104.004,286.191 103.957,285.663 103.960 C 285.135 103.962,284.947 104.012,285.246 104.069 M313.557 108.628 C 313.854 108.685,314.340 108.685,314.637 108.628 C 314.934 108.570,314.691 108.524,314.097 108.524 C 313.503 108.524,313.260 108.570,313.557 108.628 M155.129 113.497 C 155.644 114.025,156.120 114.457,156.186 114.457 C 156.252 114.457,155.884 114.025,155.369 113.497 C 154.853 112.969,154.378 112.537,154.312 112.537 C 154.246 112.537,154.613 112.969,155.129 113.497 M104.322 123.505 C 104.620 123.562,105.052 123.560,105.282 123.500 C 105.511 123.440,105.267 123.393,104.739 123.396 C 104.211 123.399,104.023 123.448,104.322 123.505 M110.678 123.501 C 110.909 123.561,111.287 123.561,111.518 123.501 C 111.749 123.440,111.560 123.391,111.098 123.391 C 110.636 123.391,110.447 123.440,110.678 123.501 M105.635 131.734 C 105.635 132.196,105.684 132.385,105.744 132.154 C 105.805 131.923,105.805 131.545,105.744 131.314 C 105.684 131.083,105.635 131.272,105.635 131.734 M125.558 146.063 C 125.923 146.118,126.463 146.117,126.758 146.060 C 127.053 146.003,126.755 145.958,126.095 145.959 C 125.435 145.961,125.193 146.008,125.558 146.063 M100.530 150.750 C 101.524 151.809,101.740 152.000,101.740 151.820 C 101.740 151.781,101.227 151.268,100.600 150.680 L 99.460 149.610 100.530 150.750 M179.577 163.647 C 179.577 165.297,179.615 165.972,179.662 165.147 C 179.709 164.322,179.709 162.972,179.662 162.148 C 179.615 161.323,179.577 161.998,179.577 163.647 M176.691 163.167 C 176.691 164.421,176.732 164.934,176.781 164.307 C 176.830 163.680,176.830 162.654,176.781 162.028 C 176.732 161.401,176.691 161.914,176.691 163.167 M254.169 162.859 C 254.532 162.914,255.126 162.914,255.489 162.859 C 255.852 162.804,255.555 162.759,254.829 162.759 C 254.103 162.759,253.806 162.804,254.169 162.859 M109.479 167.367 C 109.481 167.894,109.530 168.082,109.588 167.784 C 109.645 167.485,109.643 167.053,109.583 166.824 C 109.523 166.594,109.476 166.839,109.479 167.367 M124.400 172.346 L 123.695 173.125 124.475 172.421 C 125.202 171.764,125.365 171.566,125.180 171.566 C 125.139 171.566,124.788 171.917,124.400 172.346 M109.517 179.244 C 109.517 181.554,109.553 182.499,109.597 181.344 C 109.641 180.189,109.641 178.299,109.597 177.145 C 109.553 175.990,109.517 176.935,109.517 179.244 M142.045 177.025 L 140.492 178.644 142.112 177.092 C 143.616 175.649,143.841 175.405,143.664 175.405 C 143.628 175.405,142.899 176.134,142.045 177.025 M29.095 192.801 C 29.097 193.329,29.147 193.517,29.204 193.219 C 29.261 192.920,29.259 192.488,29.199 192.259 C 29.139 192.029,29.092 192.274,29.095 192.801 M370.794 195.201 C 370.796 195.861,370.843 196.102,370.898 195.738 C 370.953 195.373,370.952 194.833,370.895 194.538 C 370.838 194.243,370.793 194.541,370.794 195.201 M129.416 201.920 C 129.417 202.975,129.459 203.377,129.510 202.813 C 129.561 202.249,129.560 201.385,129.509 200.893 C 129.457 200.402,129.416 200.864,129.416 201.920 M221.776 201.440 C 221.779 201.968,221.828 202.155,221.885 201.857 C 221.943 201.558,221.941 201.126,221.881 200.897 C 221.820 200.668,221.774 200.912,221.776 201.440 M370.798 204.679 C 370.798 205.405,370.843 205.702,370.898 205.339 C 370.953 204.976,370.953 204.382,370.898 204.019 C 370.843 203.656,370.798 203.953,370.798 204.679 M263.767 204.605 C 263.998 204.665,264.376 204.665,264.607 204.605 C 264.838 204.544,264.649 204.495,264.187 204.495 C 263.725 204.495,263.536 204.544,263.767 204.605 M282.364 205.095 C 282.924 205.145,283.842 205.145,284.403 205.095 C 284.964 205.044,284.505 205.003,283.383 205.003 C 282.262 205.003,281.803 205.044,282.364 205.095 M29.090 207.079 C 29.090 207.540,29.139 207.729,29.200 207.499 C 29.260 207.268,29.260 206.890,29.200 206.659 C 29.139 206.428,29.090 206.617,29.090 207.079 M210.498 207.004 C 210.729 207.064,211.107 207.064,211.338 207.004 C 211.569 206.944,211.380 206.894,210.918 206.894 C 210.456 206.894,210.267 206.944,210.498 207.004 M267.130 218.529 C 267.495 218.584,268.035 218.582,268.330 218.525 C 268.625 218.468,268.326 218.423,267.666 218.425 C 267.007 218.427,266.765 218.473,267.130 218.529 M287.781 220.876 C 287.782 221.800,287.826 222.148,287.878 221.650 C 287.930 221.152,287.929 220.397,287.876 219.971 C 287.823 219.545,287.780 219.952,287.781 220.876 M237.613 223.035 C 237.616 223.563,237.665 223.751,237.722 223.453 C 237.780 223.154,237.777 222.722,237.717 222.493 C 237.657 222.263,237.610 222.507,237.613 223.035 M237.608 225.075 C 237.608 225.537,237.658 225.726,237.718 225.495 C 237.778 225.264,237.778 224.886,237.718 224.655 C 237.658 224.424,237.608 224.613,237.608 225.075 M187.226 260.280 C 187.591 260.335,188.130 260.334,188.426 260.277 C 188.721 260.220,188.422 260.175,187.762 260.177 C 187.103 260.178,186.861 260.225,187.226 260.280 M147.871 275.585 C 147.874 276.113,147.923 276.300,147.980 276.002 C 148.038 275.704,148.035 275.272,147.975 275.042 C 147.915 274.813,147.868 275.057,147.871 275.585 M148.122 283.623 C 148.122 284.349,148.167 284.646,148.222 284.283 C 148.277 283.920,148.277 283.326,148.222 282.963 C 148.167 282.600,148.122 282.897,148.122 283.623 M148.373 295.981 C 148.373 297.037,148.416 297.439,148.466 296.874 C 148.517 296.310,148.516 295.446,148.465 294.955 C 148.413 294.463,148.372 294.925,148.373 295.981 M246.491 296.986 C 246.722 297.046,247.100 297.046,247.331 296.986 C 247.561 296.926,247.373 296.876,246.911 296.876 C 246.449 296.876,246.260 296.926,246.491 296.986 M186.263 302.745 C 186.494 302.805,186.872 302.805,187.103 302.745 C 187.334 302.685,187.145 302.635,186.683 302.635 C 186.221 302.635,186.032 302.685,186.263 302.745 M141.635 304.671 C 142.000 304.726,142.540 304.725,142.835 304.668 C 143.130 304.611,142.831 304.566,142.172 304.568 C 141.512 304.570,141.270 304.616,141.635 304.671 M194.664 370.898 C 195.029 370.953,195.569 370.952,195.864 370.895 C 196.159 370.838,195.861 370.793,195.201 370.794 C 194.541 370.796,194.300 370.843,194.664 370.898 M204.019 370.898 C 204.382 370.953,204.976 370.953,205.339 370.898 C 205.702 370.843,205.405 370.798,204.679 370.798 C 203.953 370.798,203.656 370.843,204.019 370.898 " stroke="none" fill="#8494b4" fill-rule="evenodd"></path><path id="path4" d="M194.061 29.204 C 194.358 29.261,194.844 29.261,195.141 29.204 C 195.438 29.146,195.195 29.100,194.601 29.100 C 194.007 29.100,193.764 29.146,194.061 29.204 M204.859 29.204 C 205.156 29.261,205.642 29.261,205.939 29.204 C 206.236 29.146,205.993 29.100,205.399 29.100 C 204.805 29.100,204.562 29.146,204.859 29.204 M317.457 75.900 C 317.457 75.941,317.807 76.292,318.236 76.680 L 319.016 77.385 318.311 76.605 C 317.654 75.878,317.457 75.715,317.457 75.900 M322.735 81.179 C 322.735 81.220,323.086 81.571,323.515 81.959 L 324.295 82.663 323.590 81.884 C 322.933 81.157,322.735 80.993,322.735 81.179 M315.721 108.632 C 316.152 108.686,316.800 108.685,317.161 108.630 C 317.521 108.575,317.169 108.531,316.377 108.533 C 315.585 108.534,315.290 108.579,315.721 108.632 M147.560 129.394 C 148.555 130.454,148.770 130.644,148.770 130.464 C 148.770 130.425,148.257 129.912,147.630 129.324 L 146.491 128.254 147.560 129.394 M105.651 129.814 C 105.651 130.540,105.696 130.837,105.751 130.474 C 105.806 130.111,105.806 129.517,105.751 129.154 C 105.696 128.791,105.651 129.088,105.651 129.814 M153.625 131.254 C 153.625 131.716,153.674 131.905,153.735 131.674 C 153.795 131.443,153.795 131.065,153.735 130.834 C 153.674 130.603,153.625 130.792,153.625 131.254 M265.450 136.945 C 265.815 137.000,266.355 136.999,266.650 136.942 C 266.945 136.885,266.647 136.839,265.987 136.841 C 265.327 136.843,265.085 136.890,265.450 136.945 M253.749 156.929 C 254.399 157.588,254.985 158.128,255.051 158.128 C 255.117 158.128,254.639 157.588,253.989 156.929 C 253.339 156.269,252.753 155.729,252.688 155.729 C 252.622 155.729,253.099 156.269,253.749 156.929 M176.689 159.088 C 176.689 160.210,176.730 160.669,176.780 160.108 C 176.831 159.547,176.831 158.629,176.780 158.068 C 176.730 157.507,176.689 157.966,176.689 159.088 M179.540 160.048 C 179.540 160.510,179.589 160.699,179.650 160.468 C 179.710 160.237,179.710 159.859,179.650 159.628 C 179.589 159.397,179.540 159.586,179.540 160.048 M179.540 167.247 C 179.540 167.708,179.589 167.897,179.650 167.666 C 179.710 167.436,179.710 167.058,179.650 166.827 C 179.589 166.596,179.540 166.785,179.540 167.247 M109.513 171.566 C 109.513 173.479,109.551 174.262,109.596 173.305 C 109.642 172.349,109.642 170.783,109.596 169.826 C 109.551 168.869,109.513 169.652,109.513 171.566 M176.905 171.206 C 176.908 171.734,176.957 171.921,177.014 171.623 C 177.072 171.324,177.070 170.892,177.009 170.663 C 176.949 170.434,176.902 170.678,176.905 171.206 M29.100 194.601 C 29.100 195.195,29.146 195.438,29.204 195.141 C 29.261 194.844,29.261 194.358,29.204 194.061 C 29.146 193.764,29.100 194.007,29.100 194.601 M370.822 200.000 C 370.822 201.980,370.859 202.758,370.904 201.729 C 370.949 200.700,370.949 199.080,370.904 198.129 C 370.858 197.179,370.821 198.020,370.822 200.000 M29.100 205.399 C 29.100 205.993,29.146 206.236,29.204 205.939 C 29.261 205.642,29.261 205.156,29.204 204.859 C 29.146 204.562,29.100 204.805,29.100 205.399 M246.006 224.355 C 246.006 224.817,246.056 225.006,246.116 224.775 C 246.177 224.544,246.177 224.166,246.116 223.935 C 246.056 223.704,246.006 223.893,246.006 224.355 M147.871 277.504 C 147.874 278.032,147.923 278.220,147.980 277.922 C 148.038 277.623,148.035 277.191,147.975 276.962 C 147.915 276.732,147.868 276.977,147.871 277.504 M269.282 280.984 C 269.282 281.446,269.331 281.635,269.392 281.404 C 269.452 281.173,269.452 280.795,269.392 280.564 C 269.331 280.333,269.282 280.522,269.282 280.984 M148.125 286.143 C 148.126 286.935,148.171 287.230,148.224 286.798 C 148.278 286.367,148.277 285.719,148.222 285.359 C 148.167 284.998,148.123 285.351,148.125 286.143 M243.726 296.994 C 244.152 297.047,244.908 297.048,245.406 296.996 C 245.903 296.944,245.555 296.900,244.631 296.899 C 243.707 296.898,243.300 296.941,243.726 296.994 M158.434 298.260 C 158.434 298.854,158.480 299.097,158.538 298.800 C 158.595 298.503,158.595 298.017,158.538 297.720 C 158.480 297.424,158.434 297.666,158.434 298.260 M129.154 301.312 C 129.517 301.367,130.111 301.367,130.474 301.312 C 130.837 301.257,130.540 301.212,129.814 301.212 C 129.088 301.212,128.791 301.257,129.154 301.312 M202.100 304.425 C 202.331 304.485,202.708 304.485,202.939 304.425 C 203.170 304.364,202.981 304.315,202.519 304.315 C 202.058 304.315,201.869 304.364,202.100 304.425 M75.825 317.532 C 75.825 317.573,76.176 317.924,76.605 318.311 L 77.385 319.016 76.680 318.236 C 76.023 317.509,75.825 317.346,75.825 317.532 M320.685 320.876 L 319.736 321.896 320.756 320.947 C 321.704 320.065,321.886 319.856,321.704 319.856 C 321.665 319.856,321.206 320.315,320.685 320.876 M81.104 322.811 C 81.104 322.852,81.455 323.203,81.884 323.590 L 82.663 324.295 81.959 323.515 C 81.302 322.788,81.104 322.625,81.104 322.811 M198.271 370.904 C 199.300 370.949,200.920 370.949,201.871 370.904 C 202.821 370.858,201.980 370.821,200.000 370.822 C 198.020 370.822,197.242 370.859,198.271 370.904 " stroke="none" fill="#647c9c" fill-rule="evenodd"></path></g></svg>