<svg id="svg" version="1.1" xmlns="http://www.w3.org/2000/svg" xmlns:xlink="http://www.w3.org/1999/xlink" width="400" height="309.09090909090907" viewBox="0, 0, 400,309.09090909090907"><g id="svgg"><path id="path0" d="M247.174 58.060 C 247.025 58.302,239.995 58.831,237.944 58.754 C 237.477 58.737,237.094 58.864,237.094 59.037 C 237.094 59.210,236.536 59.351,235.854 59.351 C 235.171 59.351,234.371 59.477,234.076 59.632 C 233.781 59.787,232.496 60.069,231.221 60.261 C 229.946 60.452,228.381 60.688,227.743 60.785 C 227.106 60.882,226.584 61.066,226.584 61.195 C 226.584 61.323,225.799 61.509,224.840 61.608 C 223.881 61.707,222.949 61.935,222.769 62.115 C 222.589 62.295,222.061 62.442,221.595 62.442 C 221.129 62.442,220.658 62.587,220.549 62.764 C 220.439 62.941,220.083 63.001,219.758 62.897 C 219.427 62.792,219.165 62.855,219.165 63.039 C 219.165 63.221,218.748 63.369,218.238 63.369 C 217.728 63.369,217.311 63.509,217.311 63.679 C 217.311 63.849,216.998 63.988,216.615 63.990 C 216.233 63.991,215.521 64.199,215.034 64.453 C 214.547 64.707,213.886 64.915,213.566 64.915 C 213.245 64.915,212.983 65.043,212.983 65.200 C 212.983 65.356,212.533 65.583,211.983 65.704 C 211.433 65.825,210.668 66.130,210.283 66.382 C 209.898 66.634,209.583 66.745,209.583 66.629 C 209.583 66.512,209.364 66.635,209.097 66.902 C 208.830 67.169,208.378 67.389,208.092 67.390 C 207.807 67.391,207.171 67.657,206.679 67.982 C 206.187 68.306,205.573 68.490,205.315 68.391 C 205.007 68.273,204.922 68.336,205.068 68.572 C 205.202 68.789,205.099 68.934,204.810 68.934 C 204.545 68.934,204.326 69.107,204.323 69.320 C 204.319 69.609,204.253 69.603,204.057 69.294 C 203.846 68.962,203.759 68.977,203.608 69.371 C 203.504 69.641,203.137 69.861,202.792 69.861 C 202.446 69.861,202.164 70.000,202.164 70.170 C 202.164 70.340,201.970 70.479,201.733 70.479 C 201.496 70.479,201.219 70.697,201.117 70.962 C 201.015 71.228,200.807 71.369,200.655 71.275 C 200.503 71.181,200.207 71.311,199.997 71.564 C 199.787 71.818,199.424 72.025,199.189 72.025 C 198.955 72.025,198.764 72.161,198.764 72.328 C 198.764 72.495,198.417 72.718,197.993 72.825 C 197.569 72.931,197.299 73.142,197.393 73.294 C 197.487 73.446,197.342 73.570,197.072 73.570 C 196.802 73.570,196.500 73.779,196.402 74.034 C 196.304 74.289,196.091 74.498,195.928 74.498 C 195.138 74.498,186.881 82.207,186.848 82.975 C 186.841 83.158,186.667 83.273,186.462 83.230 C 186.257 83.188,186.090 83.305,186.090 83.491 C 186.090 83.990,184.967 85.328,184.740 85.100 C 184.632 84.993,184.544 85.210,184.544 85.584 C 184.544 85.958,184.335 86.344,184.080 86.442 C 183.825 86.539,183.617 86.883,183.617 87.205 C 183.617 87.526,183.493 87.790,183.341 87.790 C 183.189 87.790,182.986 88.106,182.889 88.491 C 182.793 88.877,182.430 89.498,182.083 89.870 C 181.448 90.551,181.237 91.051,181.707 90.761 C 181.846 90.674,181.512 91.526,180.965 92.653 C 180.418 93.781,180.035 94.872,180.114 95.079 C 180.194 95.286,180.110 95.547,179.928 95.659 C 179.747 95.772,179.598 96.203,179.598 96.618 C 179.598 97.033,179.489 97.372,179.356 97.372 C 179.224 97.372,179.083 97.685,179.044 98.068 C 179.006 98.451,178.916 99.042,178.846 99.382 C 178.776 99.722,178.707 100.878,178.694 101.950 C 178.680 103.166,178.554 103.829,178.362 103.709 C 178.164 103.587,178.053 104.524,178.053 106.300 C 178.053 107.831,178.172 109.156,178.318 109.246 C 178.463 109.336,178.657 110.599,178.747 112.051 C 178.838 113.504,179.049 114.864,179.216 115.074 C 179.483 115.409,179.688 116.200,180.012 118.154 C 180.061 118.449,180.196 118.785,180.313 118.901 C 180.430 119.018,180.526 119.369,180.526 119.681 C 180.526 119.992,180.652 120.247,180.808 120.247 C 181.269 120.247,181.649 123.990,181.302 125.116 C 181.132 125.668,180.887 126.121,180.759 126.121 C 180.631 126.121,180.526 126.306,180.526 126.533 C 180.526 126.760,180.108 127.318,179.598 127.772 C 179.088 128.226,178.671 128.775,178.671 128.991 C 178.671 129.208,178.400 129.580,178.069 129.818 C 177.738 130.057,177.515 130.331,177.573 130.427 C 177.631 130.524,177.484 130.782,177.247 131.001 C 177.010 131.221,176.816 131.315,176.816 131.211 C 176.816 131.107,176.329 131.539,175.734 132.170 C 175.139 132.801,174.652 133.445,174.652 133.601 C 174.652 133.757,174.548 133.838,174.420 133.780 C 174.145 133.655,171.903 135.919,172.066 136.157 C 172.129 136.248,172.095 136.260,171.992 136.186 C 171.889 136.111,171.478 136.354,171.079 136.727 C 169.602 138.106,169.397 138.236,169.397 137.795 C 169.397 137.573,169.746 137.046,170.173 136.624 C 170.600 136.203,171.122 135.671,171.332 135.442 C 171.543 135.214,172.049 134.692,172.456 134.283 C 172.864 133.874,173.086 133.539,172.950 133.539 C 172.814 133.539,172.968 133.296,173.291 132.998 C 173.615 132.701,173.922 132.249,173.974 131.994 C 174.026 131.739,174.269 131.376,174.515 131.187 C 174.760 130.998,174.961 130.558,174.961 130.208 C 174.961 129.858,175.096 129.526,175.262 129.469 C 175.532 129.376,175.805 128.458,175.866 127.434 C 175.878 127.222,176.236 127.048,176.662 127.048 C 177.087 127.048,177.434 126.909,177.434 126.739 C 177.434 126.569,177.650 126.430,177.913 126.430 C 178.486 126.430,179.907 124.966,179.907 124.375 C 179.907 124.145,180.046 123.957,180.216 123.957 C 180.584 123.957,180.496 123.334,180.062 122.865 C 179.732 122.508,178.562 121.997,178.447 122.159 C 178.409 122.213,178.074 121.879,177.702 121.416 C 176.996 120.539,176.733 118.813,177.208 118.176 C 177.423 117.888,177.388 109.160,177.141 101.468 C 177.128 101.086,176.981 100.773,176.813 100.773 C 176.645 100.773,176.507 100.355,176.507 99.845 C 176.507 99.335,176.382 98.918,176.228 98.918 C 176.075 98.918,175.853 98.083,175.734 97.063 C 175.616 96.043,175.393 95.209,175.240 95.209 C 175.087 95.209,174.961 94.853,174.961 94.418 C 174.961 93.983,174.840 93.701,174.692 93.793 C 174.544 93.885,174.346 93.386,174.252 92.685 C 174.158 91.984,173.896 91.293,173.671 91.150 C 173.446 91.007,173.358 90.888,173.477 90.886 C 173.596 90.883,173.490 90.394,173.241 89.799 C 172.993 89.204,172.870 88.717,172.969 88.717 C 173.068 88.717,172.882 88.335,172.556 87.867 C 172.230 87.400,171.707 86.426,171.394 85.703 C 171.080 84.981,170.712 84.389,170.574 84.389 C 170.437 84.389,170.325 84.111,170.325 83.771 C 170.325 83.431,170.190 83.153,170.025 83.153 C 169.860 83.153,169.813 82.910,169.920 82.612 C 170.027 82.315,170.003 82.172,169.867 82.295 C 169.731 82.418,169.344 82.000,169.006 81.367 C 168.669 80.734,168.305 80.147,168.199 80.062 C 168.093 79.977,167.765 79.386,167.470 78.748 C 167.175 78.111,166.793 77.589,166.620 77.589 C 166.447 77.589,166.306 77.392,166.306 77.151 C 166.306 76.910,166.202 76.667,166.074 76.610 C 165.508 76.358,164.158 74.413,164.342 74.115 C 164.455 73.933,164.421 73.860,164.267 73.954 C 164.113 74.047,163.808 73.930,163.589 73.692 C 163.370 73.455,163.287 73.261,163.405 73.261 C 163.523 73.261,163.251 72.944,162.799 72.556 C 162.348 72.168,161.978 71.673,161.978 71.456 C 161.978 71.239,161.839 71.147,161.669 71.252 C 161.499 71.357,161.360 71.226,161.360 70.961 C 161.360 70.696,161.172 70.479,160.943 70.479 C 160.713 70.479,159.791 69.749,158.892 68.856 C 157.994 67.964,157.371 67.442,157.508 67.697 C 157.729 68.109,157.691 68.109,157.163 67.697 C 156.485 67.168,155.263 66.461,155.027 66.461 C 154.813 66.461,154.834 67.690,155.063 68.544 C 155.165 68.924,155.371 69.160,155.522 69.066 C 155.673 68.973,155.796 69.114,155.796 69.379 C 155.796 69.644,155.935 69.861,156.105 69.861 C 156.275 69.861,156.414 70.070,156.414 70.325 C 156.414 70.580,156.568 70.788,156.756 70.788 C 156.945 70.788,157.016 71.004,156.915 71.268 C 156.809 71.543,156.861 71.667,157.036 71.559 C 157.204 71.455,157.342 71.587,157.342 71.852 C 157.342 72.117,157.465 72.334,157.616 72.334 C 157.767 72.334,157.983 72.825,158.096 73.424 C 158.208 74.024,158.421 74.440,158.569 74.349 C 158.716 74.258,158.929 74.602,159.041 75.113 C 159.153 75.625,159.373 76.043,159.530 76.043 C 159.686 76.043,159.815 76.178,159.815 76.343 C 159.815 76.508,160.162 77.403,160.587 78.333 C 161.012 79.262,161.360 80.228,161.360 80.480 C 161.360 80.732,161.501 80.985,161.673 81.042 C 162.046 81.166,162.469 86.872,162.163 87.667 C 161.924 88.291,160.433 86.890,160.433 86.042 C 160.433 85.813,160.294 85.626,160.124 85.626 C 159.954 85.626,159.815 85.417,159.815 85.162 C 159.815 84.907,159.691 84.699,159.539 84.699 C 159.262 84.699,158.735 83.218,158.844 82.744 C 158.876 82.603,158.780 82.565,158.630 82.657 C 158.480 82.750,158.097 82.343,157.779 81.753 C 157.461 81.163,157.125 80.680,157.031 80.680 C 156.938 80.680,156.587 80.055,156.252 79.292 C 155.916 78.528,155.537 77.903,155.410 77.901 C 155.282 77.899,155.178 77.689,155.178 77.434 C 155.178 77.179,155.050 76.971,154.894 76.971 C 154.738 76.971,154.300 76.469,153.922 75.857 C 153.543 75.244,152.634 74.108,151.901 73.332 C 151.168 72.556,150.654 71.782,150.760 71.612 C 150.874 71.427,150.744 71.381,150.437 71.499 C 150.154 71.607,149.923 71.561,149.923 71.397 C 149.923 71.232,149.645 71.097,149.304 71.097 C 148.964 71.097,148.686 70.951,148.686 70.772 C 148.686 70.571,147.923 70.471,146.693 70.511 C 144.321 70.588,144.314 70.683,146.522 72.929 C 148.849 75.294,149.760 77.561,149.653 80.721 C 149.603 82.214,150.575 85.008,151.145 85.008 C 151.704 85.008,152.705 86.055,152.705 86.640 C 152.705 86.953,152.844 87.122,153.014 87.017 C 153.202 86.901,153.323 87.366,153.323 88.209 C 153.323 88.973,153.481 89.646,153.676 89.711 C 153.942 89.799,153.942 89.994,153.676 90.489 C 153.482 90.852,153.323 91.506,153.323 91.943 C 153.323 92.379,153.255 92.736,153.172 92.736 C 152.811 92.736,151.777 91.633,151.777 91.248 C 151.777 91.016,151.464 90.549,151.082 90.211 C 150.699 89.874,150.560 89.686,150.773 89.794 C 151.312 90.068,151.255 89.850,150.587 89.079 C 150.272 88.716,149.924 88.509,149.814 88.620 C 149.704 88.730,149.614 88.648,149.614 88.437 C 149.614 87.611,146.169 85.630,144.716 85.621 C 144.072 85.618,143.995 85.552,144.359 85.316 C 144.694 85.099,144.439 85.021,143.431 85.034 C 141.934 85.052,139.047 85.595,138.794 85.906 C 138.709 86.010,138.088 86.372,137.415 86.711 C 136.741 87.049,135.836 87.682,135.405 88.116 C 134.464 89.065,132.921 89.797,132.921 89.296 C 132.921 89.111,132.724 89.036,132.483 89.128 C 132.242 89.221,131.972 89.107,131.883 88.875 C 131.488 87.845,126.739 86.575,126.739 87.499 C 126.739 87.679,126.611 87.748,126.456 87.651 C 126.300 87.555,125.778 87.639,125.296 87.838 C 124.815 88.036,124.316 88.176,124.189 88.149 C 124.061 88.121,123.957 88.232,123.957 88.394 C 123.957 88.716,122.012 89.182,121.020 89.098 C 119.922 89.005,118.551 88.632,118.386 88.381 C 118.297 88.247,117.823 88.064,117.331 87.975 C 116.839 87.885,116.293 87.668,116.116 87.492 C 115.940 87.316,115.484 87.172,115.103 87.172 C 114.722 87.172,114.325 87.032,114.219 86.862 C 114.114 86.692,113.063 86.553,111.883 86.553 C 110.659 86.553,109.737 86.686,109.737 86.862 C 109.737 87.032,109.459 87.172,109.119 87.172 C 108.779 87.172,108.485 87.276,108.466 87.403 C 108.193 89.236,108.232 89.645,108.677 89.645 C 108.940 89.645,109.074 89.777,108.974 89.938 C 108.874 90.099,109.282 90.323,109.881 90.436 C 110.479 90.548,110.892 90.764,110.798 90.915 C 110.705 91.066,110.915 91.190,111.265 91.190 C 111.615 91.190,111.901 91.344,111.901 91.532 C 111.901 91.721,112.088 91.803,112.317 91.715 C 112.545 91.627,112.924 91.821,113.158 92.146 C 113.392 92.470,113.711 92.736,113.867 92.736 C 114.023 92.736,114.336 92.979,114.562 93.277 C 115.042 93.910,115.143 95.648,114.683 95.363 C 114.509 95.255,114.374 95.508,114.374 95.945 C 114.374 96.370,114.233 96.805,114.060 96.912 C 113.887 97.019,113.835 97.251,113.945 97.428 C 114.054 97.606,114.022 97.840,113.873 97.948 C 113.433 98.268,112.519 100.053,112.519 100.593 C 112.519 100.866,112.354 101.355,112.152 101.679 C 111.212 103.183,113.015 103.681,114.468 102.320 C 115.558 101.298,116.418 101.156,117.329 101.845 C 117.659 102.094,117.815 102.303,117.675 102.309 C 117.215 102.326,118.338 103.246,118.820 103.246 C 119.347 103.246,120.866 101.845,120.866 101.359 C 120.866 101.186,121.005 101.131,121.175 101.236 C 121.345 101.342,121.484 101.280,121.484 101.100 C 121.484 100.920,121.727 100.771,122.025 100.768 C 122.449 100.764,122.475 100.706,122.143 100.496 C 121.858 100.315,122.286 100.131,123.468 99.927 C 125.462 99.584,126.716 99.736,126.952 100.350 C 127.041 100.583,127.386 100.773,127.717 100.773 C 128.049 100.773,128.253 100.883,128.170 101.017 C 127.992 101.305,129.843 101.317,130.294 101.031 C 130.464 100.923,131.020 100.787,131.530 100.728 C 132.040 100.669,132.542 100.505,132.645 100.364 C 133.345 99.406,135.398 99.777,136.704 101.097 C 137.429 101.830,137.826 102.314,137.587 102.172 C 137.294 101.997,137.225 102.029,137.374 102.271 C 137.495 102.467,138.008 102.628,138.514 102.628 C 139.326 102.628,139.397 102.698,139.117 103.221 C 138.810 103.794,135.872 104.079,129.598 104.143 C 129.046 104.149,128.594 104.281,128.594 104.436 C 128.594 104.591,127.760 104.978,126.741 105.296 C 125.723 105.613,124.888 105.978,124.887 106.105 C 124.885 106.233,124.675 106.337,124.420 106.337 C 124.165 106.337,123.957 106.461,123.957 106.613 C 123.957 106.764,123.582 106.982,123.125 107.097 C 122.667 107.212,122.042 107.596,121.734 107.951 C 121.426 108.305,121.175 108.507,121.175 108.400 C 121.175 108.292,120.557 108.549,119.801 108.971 C 119.046 109.392,118.150 109.737,117.810 109.737 C 117.471 109.737,117.107 109.876,117.002 110.046 C 116.896 110.216,116.541 110.355,116.211 110.355 C 115.881 110.355,115.611 110.500,115.611 110.677 C 115.611 110.881,114.638 110.965,112.938 110.908 C 109.717 110.801,109.113 110.333,110.458 108.988 C 110.912 108.535,111.283 107.961,111.283 107.714 C 111.283 107.467,111.422 107.264,111.592 107.264 C 111.762 107.264,111.901 106.945,111.901 106.554 C 111.901 105.815,110.961 105.588,110.124 106.125 C 109.885 106.278,109.735 106.218,109.733 105.969 C 109.729 105.636,109.682 105.636,109.471 105.969 C 109.127 106.511,106.149 106.350,106.260 105.796 C 106.302 105.583,106.207 105.410,106.049 105.410 C 105.890 105.410,105.664 105.107,105.547 104.738 C 105.430 104.368,105.086 103.800,104.783 103.475 C 104.480 103.149,104.143 102.408,104.034 101.828 C 103.925 101.248,103.703 100.773,103.541 100.773 C 103.379 100.773,103.244 100.390,103.241 99.923 C 103.237 99.260,103.170 99.175,102.937 99.536 C 102.693 99.913,102.636 99.874,102.632 99.324 C 102.629 98.827,102.454 98.660,101.974 98.697 C 101.140 98.759,101.254 107.106,102.136 110.510 C 102.701 112.690,103.231 113.447,104.194 113.447 C 104.877 113.447,105.205 113.647,105.469 114.227 C 105.665 114.656,106.149 115.088,106.544 115.188 C 106.940 115.287,107.264 115.492,107.264 115.644 C 107.264 115.796,107.543 115.920,107.883 115.920 C 108.223 115.920,108.501 116.028,108.501 116.161 C 108.501 116.603,111.058 116.774,113.833 116.519 C 114.640 116.444,115.301 116.279,115.301 116.151 C 115.301 116.024,115.649 115.920,116.074 115.920 C 116.499 115.920,116.847 115.796,116.847 115.646 C 116.847 115.495,117.473 115.278,118.238 115.163 C 119.003 115.048,119.629 114.824,119.629 114.664 C 119.629 114.505,119.907 114.374,120.247 114.374 C 120.587 114.374,120.866 114.235,120.866 114.065 C 120.866 113.895,121.144 113.756,121.484 113.756 C 121.824 113.756,122.102 113.602,122.102 113.414 C 122.102 113.225,122.318 113.154,122.582 113.256 C 122.846 113.357,122.992 113.328,122.908 113.191 C 122.823 113.054,123.198 112.683,123.742 112.367 C 124.285 112.052,124.799 111.713,124.884 111.615 C 125.267 111.174,126.483 110.661,126.751 110.827 C 126.914 110.928,127.048 110.863,127.048 110.683 C 127.048 110.503,127.257 110.355,127.512 110.355 C 127.767 110.355,127.975 110.232,127.975 110.081 C 127.975 109.443,133.583 109.171,137.481 109.621 C 139.082 109.806,139.104 109.822,139.104 110.855 C 139.104 111.811,139.347 112.066,140.131 111.930 C 140.271 111.906,140.298 112.028,140.190 112.203 C 140.083 112.377,139.746 112.519,139.442 112.519 C 138.800 112.519,137.558 113.511,137.558 114.024 C 137.558 114.216,137.349 114.374,137.094 114.374 C 136.839 114.374,136.631 114.507,136.631 114.669 C 136.631 114.831,136.142 115.056,135.545 115.168 C 134.948 115.280,134.384 115.495,134.291 115.646 C 134.197 115.796,133.793 115.920,133.392 115.920 C 132.992 115.920,132.617 116.024,132.561 116.151 C 131.757 117.960,126.455 117.756,124.507 115.842 C 123.898 115.244,123.029 115.118,123.029 115.629 C 123.029 115.809,122.902 115.877,122.745 115.781 C 122.589 115.684,122.370 116.024,122.257 116.535 C 122.145 117.047,121.925 117.465,121.768 117.465 C 121.612 117.465,121.484 117.739,121.484 118.074 C 121.484 118.825,120.741 118.619,119.664 117.567 C 118.687 116.613,117.465 116.898,117.465 118.080 C 117.465 118.272,117.323 118.341,117.148 118.233 C 116.974 118.126,116.854 118.152,116.881 118.292 C 116.981 118.816,116.450 120.556,116.190 120.556 C 116.041 120.556,115.920 121.530,115.920 122.720 C 115.920 123.910,116.043 124.884,116.194 124.884 C 116.345 124.884,116.565 125.396,116.683 126.022 C 116.840 126.864,116.969 127.045,117.176 126.717 C 117.612 126.028,117.533 129.129,117.094 129.928 C 116.890 130.299,116.677 130.881,116.621 131.221 C 116.566 131.561,116.385 131.886,116.220 131.942 C 116.055 131.999,115.917 132.347,115.915 132.715 C 115.911 133.261,115.855 133.299,115.611 132.921 C 115.383 132.569,115.310 132.700,115.306 133.462 C 115.301 134.612,117.611 134.968,118.874 134.013 C 119.204 133.763,119.718 133.555,120.015 133.549 C 120.313 133.544,120.556 133.397,120.556 133.224 C 120.556 133.050,120.901 132.751,121.323 132.559 C 121.745 132.366,122.175 131.942,122.279 131.614 C 122.383 131.287,122.528 131.080,122.602 131.155 C 122.676 131.229,123.242 130.827,123.858 130.262 C 124.831 129.371,125.812 129.079,125.356 129.816 C 125.115 130.207,126.410 130.438,127.155 130.138 C 127.521 129.990,127.695 129.860,127.542 129.850 C 127.388 129.839,127.562 129.570,127.928 129.253 C 128.294 128.935,128.594 128.539,128.594 128.371 C 128.594 127.732,133.490 122.653,133.876 122.892 C 134.031 122.987,134.158 122.929,134.158 122.761 C 134.158 122.377,135.919 121.484,136.678 121.484 C 136.992 121.484,137.249 121.362,137.249 121.214 C 137.249 120.975,139.589 120.549,141.029 120.526 C 141.324 120.521,141.645 120.387,141.743 120.228 C 141.842 120.068,142.401 119.938,142.986 119.938 C 143.571 119.938,144.049 119.799,144.049 119.629 C 144.049 119.459,144.353 119.320,144.725 119.320 C 145.811 119.320,148.088 118.068,148.451 117.271 C 148.635 116.868,148.910 116.538,149.063 116.538 C 149.216 116.538,149.255 116.399,149.150 116.229 C 149.045 116.059,149.106 115.920,149.286 115.920 C 149.466 115.920,149.614 115.711,149.614 115.456 C 149.614 115.201,149.720 114.992,149.851 114.992 C 149.982 114.992,150.326 114.610,150.616 114.142 C 151.011 113.505,151.145 113.429,151.151 113.840 C 151.167 114.919,152.559 115.170,153.612 114.283 C 154.721 113.351,156.036 113.379,157.087 114.359 L 157.767 114.992 157.117 114.992 C 156.691 114.992,156.324 115.313,156.056 115.920 C 155.830 116.430,155.565 116.847,155.468 116.847 C 154.386 116.847,155.646 119.067,156.775 119.150 C 157.926 119.235,156.971 119.543,155.758 119.477 C 154.682 119.419,153.991 119.535,153.705 119.821 C 153.467 120.059,153.160 120.183,153.021 120.097 C 152.673 119.882,152.396 120.713,152.396 121.973 C 152.396 122.894,152.296 123.029,151.623 123.029 C 151.198 123.029,150.850 123.140,150.850 123.275 C 150.850 123.409,150.400 123.653,149.850 123.816 C 149.300 123.978,148.696 124.423,148.509 124.805 C 148.321 125.186,148.064 125.395,147.937 125.269 C 147.810 125.142,147.746 125.804,147.796 126.739 L 147.887 128.439 145.442 128.530 C 144.097 128.581,142.790 128.789,142.536 128.994 C 142.161 129.297,142.120 129.281,142.311 128.903 C 142.440 128.648,142.119 128.921,141.598 129.509 C 140.845 130.359,140.649 130.860,140.649 131.941 C 140.649 133.217,140.606 133.288,139.954 133.065 C 138.430 132.546,135.114 132.539,134.600 133.053 C 134.329 133.324,133.958 133.453,133.776 133.340 C 133.593 133.227,133.530 133.274,133.636 133.445 C 133.741 133.615,133.554 134.048,133.220 134.407 C 132.885 134.766,132.612 135.413,132.612 135.845 C 132.612 136.705,130.959 137.045,130.669 136.244 C 130.557 135.935,130.398 135.935,129.875 136.244 C 129.515 136.457,129.010 136.631,128.752 136.631 C 128.245 136.631,127.468 137.318,126.643 138.496 C 125.535 140.077,126.092 143.912,127.456 144.099 C 127.657 144.127,126.777 144.259,125.502 144.394 C 122.499 144.711,122.411 144.728,122.411 145.006 C 122.411 145.136,122.237 145.431,122.025 145.662 C 121.812 145.893,121.464 146.388,121.252 146.762 C 120.791 147.572,120.726 151.777,121.175 151.777 C 121.345 151.777,121.484 151.986,121.484 152.241 C 121.484 152.496,121.614 152.705,121.772 152.705 C 121.931 152.705,122.148 152.980,122.255 153.317 C 122.361 153.653,122.545 153.915,122.662 153.898 C 123.439 153.788,123.790 153.959,123.353 154.235 C 123.106 154.391,122.793 154.450,122.658 154.366 C 122.522 154.282,122.411 154.361,122.411 154.541 C 122.411 154.721,122.075 154.869,121.664 154.869 C 120.509 154.869,119.489 156.751,119.443 158.964 C 119.423 159.942,119.500 160.742,119.614 160.742 C 119.729 160.742,120.014 161.229,120.247 161.824 C 120.481 162.419,120.793 162.906,120.941 162.906 C 121.090 162.906,121.135 163.029,121.042 163.180 C 120.855 163.483,121.863 163.822,122.968 163.829 L 123.679 163.833 122.891 164.564 C 122.457 164.966,122.102 165.453,122.102 165.646 C 122.102 165.839,121.963 165.997,121.793 165.997 C 121.621 165.997,121.484 166.821,121.484 167.852 C 121.484 168.872,121.607 169.706,121.758 169.706 C 121.910 169.706,122.125 170.193,122.236 170.788 C 122.395 171.634,122.588 171.871,123.121 171.875 C 123.674 171.879,123.715 171.936,123.338 172.179 C 122.937 172.438,122.944 172.480,123.390 172.484 C 123.673 172.486,123.961 172.654,124.028 172.857 C 124.103 173.082,124.829 173.233,125.878 173.244 C 126.828 173.253,127.514 173.331,127.404 173.416 C 127.293 173.501,127.156 173.849,127.099 174.189 C 127.043 174.529,126.869 174.939,126.713 175.100 C 126.368 175.459,126.332 178.053,126.673 178.053 C 126.807 178.053,126.937 178.321,126.961 178.650 C 126.986 178.979,127.299 179.540,127.657 179.898 C 128.014 180.255,128.234 180.666,128.145 180.811 C 127.902 181.204,129.123 181.444,131.390 181.449 L 133.414 181.453 133.289 183.417 C 133.166 185.348,133.184 185.403,134.356 186.590 C 136.157 188.415,136.631 189.468,136.631 191.642 C 136.631 192.720,136.754 193.469,136.915 193.369 C 137.071 193.273,137.291 193.614,137.403 194.127 C 137.516 194.640,137.736 194.981,137.892 194.884 C 138.048 194.787,138.176 194.949,138.176 195.243 C 138.176 195.538,138.372 195.998,138.612 196.266 C 138.852 196.535,139.095 197.032,139.153 197.372 C 139.211 197.713,139.335 198.060,139.429 198.145 C 139.808 198.488,140.649 200.599,140.649 201.206 C 140.649 201.563,140.772 201.855,140.923 201.855 C 141.238 201.855,141.602 203.455,141.579 204.736 C 141.570 205.255,141.691 205.530,141.879 205.414 C 142.074 205.293,142.195 205.698,142.195 206.473 C 142.195 207.163,142.316 207.728,142.464 207.728 C 142.748 207.728,143.262 213.864,143.144 215.842 C 143.104 216.507,143.217 217.002,143.408 217.002 C 143.817 217.002,143.880 231.098,143.472 231.350 C 143.324 231.442,143.119 232.043,143.016 232.686 C 142.912 233.339,142.553 234.054,142.203 234.306 C 141.858 234.555,141.577 234.939,141.577 235.160 C 141.577 235.381,141.229 235.720,140.804 235.914 C 140.379 236.108,140.031 236.383,140.031 236.526 C 140.031 236.971,136.441 236.811,135.507 236.323 C 135.020 236.069,134.760 235.845,134.930 235.824 C 135.900 235.707,132.401 235.274,130.448 235.270 C 128.115 235.266,126.584 236.136,126.584 237.468 C 126.584 237.693,125.731 237.786,124.064 237.741 C 122.549 237.701,121.463 237.806,121.341 238.003 C 121.229 238.183,120.878 238.331,120.560 238.331 C 120.242 238.331,119.774 238.539,119.519 238.794 C 119.264 239.049,118.898 239.258,118.706 239.258 C 118.513 239.258,118.429 239.376,118.518 239.520 C 118.607 239.665,118.441 240.047,118.148 240.370 C 116.393 242.308,116.309 245.129,118.006 245.136 C 118.644 245.139,119.374 245.276,119.629 245.440 C 119.974 245.663,119.792 245.741,118.924 245.745 C 118.085 245.748,117.706 245.902,117.582 246.291 C 117.487 246.588,117.255 247.153,117.066 247.546 C 116.809 248.080,116.816 248.411,117.094 248.856 C 117.298 249.183,117.465 249.667,117.465 249.932 C 117.465 250.196,117.602 250.581,117.770 250.786 C 117.937 250.991,118.436 251.611,118.879 252.164 C 120.170 253.776,120.866 253.532,120.866 251.468 C 120.866 250.533,121.005 249.768,121.175 249.768 C 121.345 249.768,121.484 249.490,121.484 249.150 C 121.484 248.810,121.623 248.532,121.793 248.532 C 121.963 248.532,122.067 248.366,122.025 248.164 C 121.982 247.961,122.207 247.739,122.525 247.670 C 122.887 247.592,123.024 247.672,122.893 247.884 C 122.769 248.085,122.928 248.223,123.287 248.223 C 123.619 248.223,123.971 248.014,124.069 247.759 C 124.477 246.694,124.730 247.446,124.730 249.727 C 124.730 252.066,124.767 252.193,125.723 253.086 C 126.270 253.597,126.652 254.079,126.574 254.158 C 126.495 254.237,126.743 254.279,127.125 254.252 C 127.642 254.215,127.847 253.979,127.922 253.337 C 127.978 252.860,128.361 252.107,128.772 251.664 C 129.184 251.220,129.521 250.612,129.521 250.312 C 129.521 250.013,129.660 249.768,129.830 249.768 C 130.000 249.768,130.139 249.977,130.139 250.232 C 130.139 250.557,130.467 250.696,131.239 250.696 C 131.894 250.696,132.262 250.821,132.148 251.005 C 132.024 251.206,133.897 251.314,137.540 251.314 C 140.610 251.314,143.122 251.198,143.122 251.057 C 143.122 250.798,147.997 250.190,152.528 249.883 C 154.158 249.773,154.830 249.624,154.537 249.439 C 154.170 249.206,156.975 248.946,158.037 249.113 C 158.165 249.133,158.269 249.003,158.269 248.824 C 158.269 248.645,158.710 248.054,159.248 247.510 C 159.786 246.967,160.083 246.731,159.908 246.986 C 159.286 247.889,159.265 249.063,159.864 249.494 C 160.177 249.720,160.433 250.083,160.433 250.300 C 160.433 250.518,160.580 250.696,160.760 250.696 C 160.940 250.696,161.002 250.835,160.896 251.005 C 160.791 251.175,160.853 251.314,161.033 251.314 C 161.220 251.314,161.360 251.978,161.360 252.859 C 161.360 254.399,161.364 254.405,162.365 254.396 C 163.372 254.387,165.379 252.943,165.379 252.227 C 165.379 252.045,165.504 251.973,165.657 252.068 C 166.620 252.663,166.332 246.458,165.356 245.575 C 165.029 245.278,164.760 244.718,164.760 244.329 C 164.760 243.940,164.619 243.535,164.446 243.428 C 164.273 243.321,164.204 243.118,164.291 242.977 C 164.379 242.835,163.827 242.462,163.064 242.148 C 161.990 241.705,161.717 241.453,161.852 241.027 C 162.108 240.217,160.818 239.281,159.428 239.268 C 158.791 239.263,158.269 239.119,158.269 238.949 C 158.269 238.779,157.713 238.640,157.032 238.640 C 155.825 238.640,155.796 238.614,155.796 237.558 C 155.796 236.963,155.908 236.476,156.046 236.476 C 156.184 236.476,156.312 235.746,156.332 234.853 C 156.414 231.222,156.719 229.991,157.828 228.814 C 158.408 228.200,158.969 227.236,159.074 226.674 C 159.180 226.111,159.390 225.574,159.540 225.481 C 159.691 225.387,159.815 224.554,159.815 223.629 C 159.815 222.704,159.945 221.947,160.105 221.947 C 160.272 221.947,160.436 219.492,160.491 216.151 C 160.580 210.809,160.639 210.283,161.249 209.428 C 161.638 208.882,161.872 208.151,161.817 207.651 C 161.766 207.183,161.843 206.801,161.989 206.801 C 162.136 206.801,162.297 206.117,162.349 205.281 L 162.442 203.761 171.373 203.582 C 177.298 203.464,180.445 203.286,180.724 203.055 C 181.033 202.798,181.144 202.798,181.144 203.053 C 181.144 203.244,181.037 203.400,180.907 203.400 C 180.602 203.400,179.598 206.218,179.598 207.074 C 179.598 207.434,179.476 207.728,179.327 207.728 C 179.178 207.728,179.044 209.815,179.029 212.365 C 179.013 215.152,179.121 217.002,179.300 217.002 C 179.464 217.002,179.598 217.558,179.598 218.238 C 179.598 218.918,179.743 219.474,179.921 219.474 C 180.098 219.474,180.207 219.648,180.163 219.861 C 180.045 220.423,181.215 223.493,181.547 223.493 C 181.702 223.493,181.756 223.680,181.669 223.909 C 181.581 224.137,181.775 224.516,182.099 224.750 C 182.424 224.984,182.689 225.294,182.689 225.440 C 182.689 225.585,183.107 226.122,183.617 226.632 C 184.127 227.142,184.544 227.757,184.544 227.999 C 184.544 228.241,184.761 228.439,185.026 228.439 C 185.291 228.439,185.422 228.578,185.317 228.748 C 185.212 228.918,185.343 229.057,185.608 229.057 C 185.873 229.057,186.090 229.187,186.090 229.345 C 186.090 229.504,186.378 229.725,186.731 229.837 C 187.084 229.949,187.296 230.117,187.203 230.211 C 186.988 230.425,188.907 232.137,189.369 232.143 C 189.558 232.146,189.967 232.488,190.279 232.903 C 190.590 233.317,191.166 233.737,191.559 233.836 C 191.951 233.934,192.272 234.151,192.272 234.318 C 192.272 234.485,192.417 234.621,192.595 234.621 C 192.772 234.621,193.292 234.969,193.751 235.394 C 194.209 235.819,194.764 236.167,194.983 236.167 C 195.203 236.167,195.457 236.362,195.549 236.600 C 195.640 236.838,195.949 237.113,196.235 237.209 C 196.942 237.449,197.811 238.039,198.682 238.872 C 199.082 239.254,199.561 239.567,199.746 239.567 C 200.441 239.567,201.363 240.944,200.750 241.068 C 199.800 241.260,195.054 240.759,195.054 240.467 C 195.054 240.312,194.637 240.185,194.127 240.185 C 193.617 240.185,193.199 240.065,193.199 239.919 C 193.199 239.772,192.886 239.655,192.504 239.659 C 191.822 239.666,191.192 239.483,189.954 238.922 C 189.614 238.767,188.988 238.582,188.563 238.509 C 188.138 238.436,187.720 238.350,187.635 238.317 C 187.550 238.284,187.376 238.274,187.249 238.294 C 187.121 238.314,187.017 238.222,187.017 238.089 C 187.017 237.956,186.649 237.817,186.198 237.780 C 185.748 237.742,185.212 237.573,185.008 237.403 C 184.803 237.234,183.955 237.006,183.122 236.897 C 182.289 236.789,181.446 236.573,181.249 236.418 C 180.788 236.057,173.986 236.148,174.211 236.512 C 174.304 236.662,174.114 236.785,173.790 236.785 C 173.466 236.785,172.880 237.063,172.488 237.403 C 172.096 237.743,171.635 238.022,171.462 238.022 C 171.290 238.022,171.239 238.112,171.349 238.222 C 171.460 238.332,171.253 238.680,170.890 238.995 C 170.527 239.310,170.349 239.567,170.494 239.567 C 170.639 239.567,170.590 239.734,170.386 239.938 C 169.782 240.542,169.910 243.901,170.556 244.392 C 171.050 244.767,171.026 244.803,170.283 244.812 C 169.440 244.823,169.101 245.424,169.092 246.927 C 169.090 247.320,168.975 247.571,168.836 247.485 C 168.469 247.258,168.389 249.942,168.743 250.601 C 169.186 251.425,169.503 252.360,169.439 252.650 C 169.407 252.791,169.524 252.817,169.699 252.710 C 169.873 252.602,170.015 252.661,170.015 252.841 C 170.015 253.021,170.433 253.168,170.943 253.168 L 171.870 253.168 171.870 250.832 C 171.870 249.353,171.984 248.565,172.179 248.686 C 172.349 248.791,172.488 248.599,172.488 248.259 C 172.488 246.943,173.059 247.373,173.261 248.841 C 173.378 249.691,173.590 250.386,173.732 250.386 C 173.873 250.386,174.235 250.943,174.535 251.623 C 175.354 253.479,176.522 253.094,177.273 250.718 C 177.404 250.306,177.806 249.650,178.168 249.261 L 178.825 248.554 178.825 250.188 C 178.825 251.696,179.513 253.151,179.997 252.667 C 180.087 252.577,180.252 252.792,180.364 253.145 C 180.548 253.727,180.888 253.925,181.530 253.823 C 181.658 253.803,181.762 253.926,181.762 254.096 C 181.762 254.266,182.179 254.405,182.689 254.405 C 183.540 254.405,183.617 254.317,183.617 253.343 C 183.617 251.030,183.968 250.696,186.391 250.696 C 187.633 250.696,188.563 250.828,188.563 251.005 C 188.563 251.190,189.799 251.314,191.654 251.314 C 193.401 251.314,194.745 251.442,194.745 251.607 C 194.745 251.769,195.336 251.891,196.059 251.879 C 198.151 251.844,202.612 252.306,202.789 252.576 C 203.153 253.132,213.879 253.300,214.089 252.753 C 214.197 252.473,214.394 252.312,214.527 252.395 C 214.867 252.605,215.765 251.157,215.765 250.397 C 215.765 250.051,215.904 249.768,216.074 249.768 C 216.244 249.768,216.383 249.304,216.383 248.738 C 216.383 248.171,216.480 247.611,216.598 247.492 C 216.884 247.207,216.937 246.791,217.186 242.890 C 217.303 241.063,217.527 239.567,217.685 239.567 C 218.082 239.567,217.911 244.000,217.504 244.265 C 216.998 244.594,217.794 247.177,218.705 248.159 C 219.128 248.616,219.474 249.105,219.474 249.246 C 219.474 249.652,220.212 250.285,220.962 250.522 C 221.339 250.642,221.577 250.855,221.490 250.995 C 221.359 251.206,221.764 251.500,222.566 251.777 C 223.302 252.032,224.025 252.428,224.365 252.765 C 224.590 252.987,225.042 253.168,225.370 253.168 C 225.698 253.168,225.967 253.273,225.968 253.400 C 225.973 253.803,227.610 254.431,229.156 254.621 C 230.126 254.741,230.504 254.896,230.238 255.064 C 229.993 255.219,230.604 255.325,231.762 255.328 C 232.825 255.330,233.694 255.437,233.694 255.564 C 233.695 255.692,234.461 255.805,235.398 255.817 C 236.364 255.828,236.933 255.730,236.712 255.590 C 236.489 255.448,237.078 255.340,238.081 255.337 C 239.048 255.334,239.919 255.204,240.016 255.047 C 240.113 254.891,241.093 254.666,242.194 254.548 C 243.295 254.430,244.120 254.211,244.027 254.060 C 243.934 253.910,244.133 253.787,244.469 253.787 C 244.805 253.787,245.126 253.655,245.183 253.494 C 245.240 253.333,245.748 253.121,246.312 253.022 C 246.877 252.923,247.632 252.570,247.990 252.236 C 248.348 251.903,248.929 251.539,249.282 251.428 C 249.634 251.316,250.145 250.970,250.418 250.657 C 250.690 250.344,250.993 250.168,251.090 250.266 C 251.340 250.515,257.187 244.546,257.187 244.042 C 257.187 243.814,257.462 243.540,257.799 243.433 C 258.136 243.326,258.386 243.143,258.356 243.026 C 258.233 242.550,258.853 241.266,259.468 240.720 C 259.829 240.400,259.915 240.245,259.660 240.376 C 259.252 240.585,259.251 240.546,259.646 240.060 C 259.893 239.756,260.140 239.214,260.194 238.855 C 260.249 238.496,260.411 238.127,260.553 238.035 C 260.696 237.943,260.906 237.519,261.020 237.094 C 261.633 234.805,261.965 233.809,262.230 233.457 C 262.684 232.857,262.667 222.896,262.213 222.615 C 262.010 222.490,261.810 221.940,261.768 221.394 C 261.726 220.848,261.560 220.402,261.397 220.402 C 261.235 220.402,261.185 220.320,261.285 220.219 C 261.385 220.119,261.130 219.403,260.718 218.628 C 260.306 217.853,259.969 217.031,259.969 216.801 C 259.969 216.571,259.830 216.383,259.660 216.383 C 259.490 216.383,259.351 216.175,259.351 215.920 C 259.351 215.665,259.212 215.456,259.042 215.456 C 258.872 215.456,258.733 215.269,258.733 215.040 C 258.733 214.812,258.384 214.221,257.958 213.727 C 257.532 213.233,257.105 212.583,257.008 212.283 C 256.912 211.983,256.683 211.831,256.499 211.944 C 256.314 212.059,256.252 212.009,256.361 211.833 C 256.540 211.543,256.158 210.999,254.404 209.053 C 254.064 208.676,253.787 208.216,253.787 208.030 C 253.787 207.844,253.682 207.755,253.555 207.832 C 253.427 207.909,253.144 207.778,252.924 207.541 C 252.705 207.304,252.628 207.110,252.752 207.110 C 252.877 207.110,252.537 206.744,251.998 206.297 C 251.458 205.850,251.105 205.342,251.213 205.168 C 251.326 204.985,251.258 204.944,251.052 205.071 C 250.833 205.206,250.694 205.076,250.691 204.732 C 250.687 204.308,250.623 204.273,250.425 204.585 C 250.167 204.993,249.910 204.715,249.819 203.930 C 249.774 203.546,248.920 202.782,248.536 202.782 C 248.343 202.782,248.273 202.642,248.379 202.470 C 248.485 202.299,248.293 202.055,247.952 201.929 C 247.611 201.803,247.324 201.561,247.314 201.391 C 247.304 201.221,247.121 201.076,246.909 201.068 C 246.696 201.060,246.561 200.876,246.607 200.658 C 246.654 200.441,246.541 200.357,246.355 200.472 C 246.164 200.590,245.944 200.400,245.848 200.035 C 245.755 199.679,245.556 199.465,245.405 199.558 C 245.255 199.651,245.131 199.519,245.131 199.264 C 245.131 199.009,244.994 198.715,244.826 198.611 C 244.649 198.502,244.588 198.658,244.681 198.979 C 244.769 199.286,244.666 199.189,244.451 198.764 C 244.010 197.891,243.255 197.038,242.990 197.113 C 242.892 197.140,242.604 197.040,242.349 196.890 C 242.002 196.687,241.990 196.616,242.299 196.609 C 242.526 196.604,241.935 195.829,240.985 194.886 C 240.035 193.944,239.258 193.049,239.258 192.898 C 239.258 192.747,238.980 192.535,238.640 192.427 C 238.300 192.319,238.022 192.095,238.022 191.929 C 238.022 191.599,237.547 190.964,236.708 190.172 C 236.410 189.891,236.167 189.406,236.167 189.094 C 236.167 188.782,236.063 188.589,235.935 188.666 C 235.655 188.836,235.121 188.246,234.991 187.623 C 234.939 187.375,234.716 187.032,234.495 186.861 C 234.274 186.691,233.994 186.239,233.873 185.857 C 233.751 185.475,233.523 185.162,233.364 185.162 C 233.205 185.162,233.076 184.954,233.076 184.699 C 233.076 184.444,232.937 184.235,232.767 184.235 C 232.597 184.235,232.457 183.957,232.457 183.617 C 232.457 183.277,232.295 182.998,232.097 182.998 C 231.899 182.998,231.825 182.910,231.933 182.802 C 232.041 182.693,231.875 182.241,231.564 181.797 C 231.252 181.353,230.896 180.433,230.773 179.753 C 230.649 179.073,230.438 178.377,230.304 178.207 C 230.025 177.853,229.533 174.538,229.602 173.483 C 229.628 173.095,229.515 172.860,229.353 172.960 C 229.172 173.072,229.057 171.933,229.057 170.034 C 229.057 168.138,229.180 166.924,229.371 166.924 C 229.548 166.924,229.615 166.529,229.524 166.016 C 229.436 165.516,229.504 165.021,229.674 164.916 C 229.845 164.810,229.985 164.418,229.985 164.044 C 229.985 163.669,230.306 163.017,230.698 162.593 C 231.091 162.170,231.418 161.705,231.426 161.560 C 231.446 161.193,232.196 160.119,232.842 159.532 C 233.139 159.262,233.780 158.659,234.267 158.192 C 234.754 157.724,235.380 157.342,235.659 157.342 C 235.939 157.342,236.167 157.218,236.167 157.066 C 236.167 156.914,236.548 156.695,237.014 156.578 C 237.480 156.461,237.934 156.246,238.024 156.101 C 238.114 155.955,238.562 155.786,239.020 155.725 C 239.478 155.663,239.951 155.515,240.071 155.396 C 240.373 155.093,246.131 155.120,245.944 155.423 C 245.861 155.557,246.094 155.690,246.462 155.718 C 246.830 155.746,247.180 155.914,247.239 156.091 C 247.298 156.269,247.524 156.414,247.741 156.414 C 247.958 156.414,248.677 156.925,249.339 157.550 L 250.541 158.685 250.532 161.468 C 250.527 163.380,250.406 164.290,250.146 164.377 C 249.938 164.446,249.768 164.847,249.768 165.268 C 249.768 165.735,249.639 165.953,249.436 165.828 C 249.254 165.715,249.282 165.908,249.500 166.256 C 249.717 166.604,250.240 166.976,250.662 167.081 L 251.428 167.274 250.675 167.648 C 249.802 168.082,249.452 169.397,250.210 169.397 C 250.477 169.397,250.698 169.571,250.700 169.784 C 250.703 170.041,250.805 170.015,251.005 169.706 C 251.204 169.397,251.306 169.371,251.309 169.629 C 251.315 170.147,255.372 170.161,255.889 169.645 C 256.177 169.356,256.260 169.453,256.260 170.082 C 256.260 170.527,256.386 170.938,256.540 170.994 C 256.695 171.051,256.869 171.376,256.927 171.716 C 256.985 172.056,257.162 172.427,257.320 172.541 C 257.478 172.655,257.643 172.992,257.687 173.291 C 257.731 173.589,257.984 173.955,258.250 174.103 C 258.515 174.252,258.734 174.541,258.736 174.745 C 258.738 174.949,259.225 175.588,259.818 176.164 C 260.411 176.740,260.896 177.341,260.896 177.498 C 260.896 177.656,261.418 178.277,262.056 178.878 C 262.693 179.480,263.184 179.992,263.146 180.017 C 262.959 180.140,263.479 181.453,263.715 181.453 C 263.865 181.453,263.988 182.268,263.988 183.265 C 263.988 184.816,264.068 185.073,264.543 185.043 C 265.391 184.989,268.006 183.513,268.006 183.087 C 268.006 182.880,268.284 182.562,268.624 182.380 C 268.964 182.198,269.243 181.846,269.243 181.597 C 269.243 181.348,269.347 181.143,269.474 181.141 C 269.757 181.138,270.479 179.638,270.479 179.055 C 270.479 178.823,270.600 178.709,270.749 178.801 C 271.108 179.023,271.399 177.145,271.403 174.575 C 271.405 173.310,271.278 172.488,271.079 172.488 C 270.899 172.488,270.837 172.351,270.940 172.183 C 271.044 172.015,270.471 171.239,269.668 170.458 C 268.197 169.028,268.174 168.488,269.584 168.475 C 269.857 168.472,270.439 168.137,270.879 167.730 C 271.318 167.322,271.767 167.079,271.877 167.189 C 271.987 167.298,272.043 167.249,272.001 167.079 C 271.911 166.704,272.276 165.793,272.917 164.793 C 273.178 164.385,273.428 163.759,273.472 163.401 C 273.517 163.044,273.626 162.246,273.714 161.628 C 273.917 160.215,273.289 159.545,272.246 160.059 C 270.676 160.833,267.398 160.857,267.872 160.091 C 267.971 159.930,267.937 159.825,267.797 159.858 C 267.292 159.973,265.850 159.434,266.004 159.186 C 266.090 159.046,265.880 158.843,265.538 158.734 C 265.195 158.625,264.915 158.398,264.915 158.230 C 264.915 158.061,264.801 157.994,264.661 158.080 C 264.521 158.167,264.175 157.966,263.891 157.635 C 263.608 157.304,263.196 157.032,262.977 157.032 C 262.758 157.032,262.383 156.762,262.145 156.431 C 261.906 156.100,261.596 155.900,261.456 155.987 C 261.316 156.073,261.118 155.927,261.016 155.661 C 260.914 155.395,260.574 155.178,260.260 155.178 C 259.947 155.178,259.569 154.960,259.420 154.695 C 259.272 154.429,258.919 154.178,258.637 154.136 C 258.355 154.095,257.809 153.787,257.424 153.452 C 257.038 153.117,256.584 152.806,256.414 152.761 C 256.244 152.715,255.792 152.599,255.410 152.503 C 255.027 152.407,254.714 152.205,254.714 152.053 C 254.714 151.901,254.505 151.777,254.250 151.777 C 253.995 151.777,253.787 151.622,253.787 151.432 C 253.787 151.239,253.514 151.158,253.168 151.249 C 252.828 151.338,252.627 151.285,252.723 151.130 C 252.818 150.976,252.462 150.850,251.932 150.850 C 251.402 150.850,251.045 150.726,251.139 150.573 C 251.233 150.421,250.720 150.215,249.998 150.116 C 249.277 150.017,248.130 149.844,247.450 149.732 C 245.850 149.468,241.922 149.470,240.340 149.736 C 239.660 149.850,238.443 150.022,237.635 150.119 C 236.828 150.215,236.167 150.401,236.167 150.533 C 236.167 150.664,235.611 150.860,234.930 150.969 C 234.250 151.078,233.694 151.304,233.694 151.472 C 233.694 151.640,233.416 151.777,233.076 151.777 C 232.736 151.777,232.457 151.917,232.457 152.087 C 232.457 152.257,232.303 152.396,232.114 152.396 C 231.827 152.396,230.530 153.539,228.679 155.425 C 228.462 155.646,228.041 156.060,227.743 156.344 C 227.446 156.628,227.202 157.093,227.202 157.377 C 227.202 157.661,227.006 157.969,226.766 158.061 C 226.526 158.153,226.150 158.725,225.931 159.331 C 225.712 159.937,225.422 160.433,225.286 160.433 C 225.150 160.433,225.039 160.772,225.039 161.187 C 225.039 161.602,224.908 162.023,224.747 162.122 C 224.587 162.221,224.363 162.925,224.249 163.686 C 224.134 164.447,223.918 165.070,223.767 165.070 C 223.409 165.070,223.409 173.023,223.766 173.158 C 224.574 173.463,224.492 176.507,223.677 176.507 C 223.236 176.507,222.875 176.387,222.875 176.240 C 222.875 176.014,222.288 175.985,221.247 176.158 C 220.838 176.226,221.130 178.053,221.550 178.053 C 221.768 178.053,221.947 178.215,221.947 178.413 C 221.947 178.612,222.029 178.693,222.128 178.594 C 222.329 178.393,222.570 178.583,225.116 180.946 C 226.094 181.854,226.893 182.764,226.893 182.970 C 226.893 183.176,227.032 183.258,227.202 183.153 C 227.372 183.048,227.512 183.179,227.512 183.444 C 227.512 183.709,227.651 183.926,227.821 183.926 C 227.991 183.926,228.130 184.177,228.130 184.485 C 228.130 184.793,228.334 185.314,228.584 185.644 C 229.273 186.556,229.164 186.708,227.821 186.708 C 227.040 186.708,226.582 186.850,226.580 187.094 C 226.576 187.352,226.475 187.326,226.275 187.017 C 226.042 186.657,225.974 186.747,225.971 187.422 C 225.968 187.927,226.096 188.210,226.277 188.098 C 226.449 187.992,227.056 188.401,227.628 189.007 C 228.199 189.612,228.824 190.108,229.016 190.108 C 229.209 190.108,229.923 190.665,230.603 191.345 C 231.283 192.025,231.927 192.562,232.034 192.540 C 232.141 192.517,233.100 193.341,234.164 194.372 C 236.950 197.069,237.708 198.918,235.703 198.124 C 234.647 197.706,232.270 197.772,232.705 198.207 C 232.909 198.411,233.076 198.828,233.076 199.134 C 233.076 199.440,233.200 199.691,233.351 199.691 C 233.503 199.691,233.714 200.039,233.821 200.464 C 233.928 200.889,234.231 201.236,234.495 201.236 C 234.759 201.236,235.169 201.410,235.405 201.623 C 236.478 202.584,236.790 202.782,237.236 202.782 C 237.498 202.782,237.713 202.944,237.713 203.143 C 237.713 203.341,237.794 203.422,237.893 203.323 C 238.134 203.082,239.970 203.721,240.258 204.146 C 240.412 204.374,240.487 204.357,240.490 204.091 C 240.494 203.720,242.864 205.046,243.317 205.674 C 243.423 205.822,243.576 205.754,243.657 205.522 C 243.737 205.290,243.907 205.570,244.036 206.144 C 244.344 207.518,243.942 207.738,241.537 207.513 C 239.368 207.311,239.043 207.804,240.417 209.209 C 240.800 209.600,241.113 210.053,241.113 210.215 C 241.113 210.377,241.395 210.510,241.741 210.510 C 242.086 210.510,242.445 210.708,242.538 210.951 C 242.631 211.193,243.252 211.483,243.919 211.596 C 244.586 211.709,245.131 211.928,245.131 212.083 C 245.131 212.238,245.349 212.365,245.615 212.365 C 245.882 212.365,246.403 212.532,246.775 212.736 C 247.146 212.940,247.714 213.151,248.036 213.205 C 248.359 213.258,248.845 213.553,249.118 213.860 C 249.391 214.166,249.857 214.507,250.155 214.618 C 250.452 214.728,250.696 215.031,250.696 215.292 C 250.696 215.552,250.835 215.765,251.005 215.765 C 251.175 215.765,251.312 216.078,251.309 216.461 C 251.305 217.023,251.247 217.067,251.005 216.692 C 250.744 216.290,250.704 216.296,250.700 216.736 C 250.694 217.355,249.155 217.818,248.833 217.298 C 248.349 216.514,247.452 217.133,247.354 218.318 C 247.301 218.954,247.389 219.474,247.550 219.474 C 247.710 219.474,247.922 219.781,248.020 220.157 C 248.118 220.532,248.282 220.754,248.386 220.651 C 248.615 220.422,250.386 222.108,250.386 222.555 C 250.386 222.731,249.900 222.875,249.304 222.875 L 248.223 222.875 248.223 225.039 C 248.223 226.356,248.094 227.202,247.895 227.202 C 247.715 227.202,247.644 227.326,247.737 227.477 C 248.252 228.309,245.212 228.784,244.423 227.995 C 243.919 227.492,243.330 227.392,242.575 227.681 C 242.231 227.814,242.165 228.319,242.276 229.966 C 242.422 232.119,241.927 234.470,241.397 234.142 C 241.241 234.046,241.113 234.114,241.113 234.294 C 241.113 234.945,240.131 234.600,239.255 233.641 C 238.763 233.102,238.413 232.574,238.478 232.469 C 238.544 232.363,238.199 232.246,237.713 232.209 C 237.005 232.155,236.809 232.281,236.730 232.841 C 236.675 233.225,236.318 233.677,235.935 233.845 C 235.553 234.012,235.240 234.256,235.240 234.386 C 235.240 234.738,233.761 234.670,233.536 234.307 C 233.430 234.134,233.191 234.086,233.007 234.200 C 232.818 234.317,232.759 234.265,232.872 234.083 C 232.982 233.905,232.864 233.679,232.610 233.582 C 232.356 233.484,232.148 233.060,232.148 232.640 C 232.148 232.220,232.009 231.790,231.839 231.685 C 231.432 231.433,231.432 226.584,231.839 226.584 C 232.009 226.584,232.123 226.480,232.091 226.352 C 231.953 225.793,232.545 220.402,232.744 220.402 C 232.866 220.402,232.997 219.696,233.037 218.833 C 233.076 217.971,233.247 216.902,233.416 216.457 C 233.786 215.482,233.727 209.892,233.346 209.892 C 233.197 209.892,233.076 209.065,233.076 208.055 C 233.076 207.045,232.957 206.145,232.812 206.056 C 232.598 205.924,232.188 203.481,232.069 201.636 C 232.056 201.431,231.929 201.335,231.788 201.423 C 231.646 201.510,231.530 201.157,231.530 200.636 C 231.530 200.116,231.391 199.691,231.221 199.691 C 231.051 199.691,230.911 199.378,230.910 198.995 C 230.909 198.613,230.700 197.901,230.446 197.414 C 230.192 196.927,229.985 196.336,229.985 196.101 C 229.985 195.865,229.831 195.672,229.642 195.672 C 229.454 195.672,229.380 195.464,229.478 195.209 C 229.576 194.954,229.521 194.745,229.357 194.745 C 229.192 194.745,229.057 194.536,229.057 194.281 C 229.057 194.026,228.934 193.818,228.782 193.818 C 228.631 193.818,228.416 193.327,228.303 192.727 C 228.191 192.127,227.967 191.718,227.805 191.818 C 227.644 191.918,227.512 191.713,227.512 191.363 C 227.512 191.013,227.372 190.726,227.202 190.726 C 227.032 190.726,226.893 190.543,226.893 190.318 C 226.893 190.094,226.476 189.443,225.966 188.872 C 225.090 187.891,224.906 187.514,225.010 186.917 C 225.034 186.777,224.927 186.740,224.772 186.836 C 224.617 186.932,224.403 186.768,224.296 186.473 C 223.861 185.271,223.256 184.484,223.089 184.903 C 222.964 185.215,222.918 185.201,222.899 184.845 C 222.886 184.585,222.110 183.577,221.175 182.604 C 220.240 181.630,219.475 180.730,219.475 180.603 C 219.475 180.475,219.360 180.371,219.221 180.371 C 218.819 180.371,217.938 179.383,218.150 179.171 C 218.255 179.066,218.158 178.980,217.934 178.980 C 217.710 178.980,216.868 178.292,216.062 177.452 C 215.256 176.611,214.534 175.986,214.458 176.063 C 214.381 176.139,213.816 175.714,213.202 175.118 C 212.589 174.522,212.001 174.034,211.896 174.034 C 211.691 174.034,209.693 172.584,209.020 171.947 C 208.795 171.735,208.412 171.561,208.170 171.561 C 207.927 171.561,207.728 171.422,207.728 171.252 C 207.728 171.082,207.519 170.943,207.264 170.943 C 207.009 170.943,206.801 170.789,206.801 170.601 C 206.801 170.412,206.585 170.341,206.321 170.443 C 206.046 170.548,205.922 170.496,206.030 170.321 C 206.134 170.153,206.002 169.998,205.737 169.977 C 204.787 169.901,204.676 169.852,203.886 169.165 C 203.446 168.783,202.879 168.470,202.625 168.470 C 202.371 168.470,202.164 168.349,202.164 168.201 C 202.164 168.053,201.688 167.855,201.107 167.761 C 200.526 167.667,199.670 167.341,199.206 167.036 C 197.920 166.194,195.975 165.860,195.613 166.419 C 195.400 166.747,194.889 165.722,194.690 164.568 C 194.635 164.249,194.367 163.740,194.094 163.436 C 193.804 163.114,193.659 162.569,193.744 162.123 C 193.828 161.680,193.745 161.360,193.545 161.360 C 193.355 161.360,193.199 160.935,193.199 160.415 C 193.199 159.894,193.324 159.546,193.476 159.640 C 193.627 159.733,193.836 159.475,193.939 159.065 C 194.167 158.156,198.764 156.784,198.764 157.625 C 198.764 157.822,199.209 157.971,199.768 157.961 C 201.249 157.935,202.782 158.292,202.782 158.665 C 202.782 158.844,202.872 158.900,202.982 158.790 C 203.167 158.605,205.521 159.723,205.873 160.162 C 205.958 160.268,206.474 160.452,207.018 160.570 C 207.571 160.690,208.088 161.032,208.187 161.345 C 208.287 161.660,208.788 161.989,209.332 162.098 C 209.865 162.205,210.487 162.558,210.715 162.883 C 210.943 163.209,211.546 163.567,212.056 163.679 C 212.566 163.791,212.983 163.995,212.983 164.133 C 212.983 164.271,213.331 164.472,213.756 164.578 C 214.181 164.685,214.529 164.909,214.529 165.075 C 214.529 165.242,214.807 165.379,215.147 165.379 C 215.815 165.379,215.880 165.034,215.568 163.144 C 215.463 162.510,215.273 162.055,215.145 162.134 C 215.017 162.213,214.832 161.871,214.733 161.375 C 214.633 160.879,213.949 159.593,213.213 158.517 C 211.236 155.629,211.261 155.680,211.984 156.067 C 212.631 156.413,213.252 154.762,212.622 154.373 C 212.302 154.175,212.280 151.347,212.597 151.030 C 212.724 150.903,212.840 150.706,212.854 150.592 C 212.951 149.797,213.406 148.686,213.635 148.686 C 213.786 148.686,213.910 148.546,213.910 148.374 C 213.910 147.890,215.509 146.213,215.971 146.213 C 216.198 146.213,216.383 146.080,216.383 145.918 C 216.383 145.756,216.869 145.532,217.463 145.421 C 218.056 145.309,218.465 145.094,218.372 144.943 C 218.278 144.792,218.635 144.668,219.165 144.668 C 219.695 144.668,220.055 144.547,219.963 144.399 C 219.872 144.252,222.091 144.131,224.898 144.131 C 227.703 144.131,230.073 144.252,230.164 144.399 C 230.255 144.547,230.948 144.668,231.703 144.668 C 232.458 144.668,233.076 144.807,233.076 144.977 C 233.076 145.147,233.284 145.286,233.539 145.286 C 233.828 145.286,234.003 144.994,234.003 144.513 C 234.003 144.088,233.856 143.740,233.676 143.740 C 233.496 143.740,233.425 143.617,233.518 143.466 C 233.611 143.316,233.400 143.117,233.049 143.026 C 232.699 142.934,232.338 142.579,232.249 142.237 C 232.160 141.895,231.681 141.474,231.185 141.301 C 230.690 141.128,230.321 140.813,230.366 140.600 C 230.411 140.388,230.263 140.207,230.037 140.200 C 229.811 140.192,229.448 139.942,229.230 139.645 C 229.012 139.347,228.676 139.104,228.482 139.104 C 228.288 139.104,228.130 138.964,228.130 138.794 C 228.130 138.624,228.234 138.502,228.362 138.522 C 229.381 138.683,230.104 137.752,229.350 137.249 C 229.223 137.164,229.070 136.816,229.011 136.476 C 228.951 136.136,228.764 135.758,228.594 135.637 C 228.142 135.314,228.235 129.125,228.694 128.972 C 228.894 128.906,229.057 128.654,229.057 128.413 C 229.057 128.172,229.211 127.975,229.399 127.975 C 229.588 127.975,229.659 127.759,229.557 127.496 C 229.452 127.220,229.504 127.096,229.679 127.205 C 229.847 127.309,229.985 127.251,229.985 127.077 C 229.985 126.762,231.683 124.884,231.968 124.884 C 232.050 124.884,232.736 124.467,233.491 123.957 C 234.247 123.447,235.019 123.029,235.207 123.029 C 235.395 123.029,235.549 122.890,235.549 122.720 C 235.549 122.550,235.827 122.411,236.167 122.411 C 236.507 122.411,236.785 122.295,236.785 122.154 C 236.785 122.012,236.959 121.873,237.172 121.844 C 239.033 121.594,239.848 121.379,239.720 121.171 C 239.568 120.926,243.064 120.374,243.849 120.520 C 244.078 120.563,244.174 120.449,244.062 120.268 C 243.930 120.054,244.330 119.938,245.206 119.938 C 245.947 119.938,246.685 119.806,246.847 119.645 C 247.009 119.483,248.113 119.310,249.301 119.258 C 251.069 119.182,251.481 119.067,251.565 118.624 C 251.628 118.295,251.478 118.083,251.182 118.083 C 250.914 118.083,250.696 117.944,250.696 117.774 C 250.696 117.604,250.348 117.465,249.923 117.465 C 249.498 117.465,249.150 117.337,249.150 117.181 C 249.150 117.024,248.246 116.799,247.141 116.681 C 246.036 116.563,245.131 116.359,245.131 116.228 C 245.131 116.097,244.749 115.919,244.281 115.831 C 243.814 115.744,243.083 115.583,242.658 115.473 C 242.233 115.363,241.155 115.191,240.263 115.090 C 239.370 114.989,238.640 114.786,238.640 114.640 C 238.640 114.494,238.092 114.374,237.422 114.374 C 236.752 114.374,236.117 114.235,236.012 114.065 C 235.899 113.881,236.267 113.756,236.921 113.756 C 238.119 113.756,238.339 113.308,237.481 112.614 C 236.996 112.221,237.014 112.212,237.659 112.526 C 239.236 113.293,239.845 111.942,238.495 110.674 C 238.075 110.279,237.790 109.862,237.862 109.746 C 237.933 109.630,237.499 109.072,236.898 108.504 C 235.488 107.175,234.170 102.324,235.217 102.317 C 235.314 102.317,235.654 101.684,235.972 100.911 C 236.290 100.139,236.617 99.575,236.700 99.658 C 236.920 99.877,237.673 99.115,237.507 98.841 C 237.430 98.713,237.493 98.609,237.647 98.609 C 237.801 98.609,238.248 98.331,238.640 97.991 C 239.032 97.651,239.540 97.372,239.769 97.372 C 239.998 97.372,240.185 97.249,240.185 97.099 C 240.185 96.706,242.402 95.686,243.045 95.784 C 243.342 95.829,243.586 95.718,243.586 95.537 C 243.586 95.357,243.934 95.209,244.359 95.209 C 244.784 95.209,245.131 95.086,245.131 94.936 C 245.131 94.696,248.928 94.085,249.536 94.227 C 249.664 94.257,249.768 94.142,249.768 93.972 C 249.768 93.802,250.533 93.663,251.468 93.663 C 252.403 93.663,253.168 93.524,253.168 93.354 C 253.168 93.177,254.191 93.033,255.564 93.018 C 258.810 92.981,260.975 92.661,261.129 92.195 C 261.200 91.982,261.037 91.808,260.768 91.808 C 260.498 91.808,260.278 91.669,260.278 91.499 C 260.278 91.329,259.992 91.190,259.642 91.190 C 259.292 91.190,259.080 91.069,259.172 90.920 C 259.264 90.772,258.474 90.552,257.416 90.433 C 256.358 90.313,255.353 90.104,255.181 89.969 C 254.676 89.571,251.591 89.225,247.218 89.076 C 245.662 89.023,245.074 88.238,246.445 88.043 C 247.165 87.941,247.695 86.244,247.007 86.244 C 246.825 86.244,246.677 86.036,246.677 85.781 C 246.677 85.526,246.538 85.317,246.368 85.317 C 246.198 85.317,246.059 84.552,246.059 83.617 C 246.059 82.682,246.198 81.917,246.368 81.917 C 246.538 81.917,246.677 81.723,246.677 81.486 C 246.677 81.249,246.887 80.975,247.144 80.876 C 247.400 80.778,247.592 80.589,247.571 80.457 C 247.439 79.656,247.616 79.292,247.913 79.753 C 248.170 80.149,248.214 80.138,248.218 79.675 C 248.220 79.378,248.416 79.134,248.653 79.134 C 248.890 79.134,249.171 78.906,249.279 78.627 C 249.386 78.347,249.563 78.208,249.673 78.318 C 249.783 78.428,250.127 78.287,250.439 78.005 C 250.750 77.724,251.005 77.601,251.005 77.733 C 251.005 77.866,251.213 77.801,251.468 77.589 C 251.723 77.377,251.934 77.325,251.937 77.474 C 251.939 77.622,252.044 77.597,252.169 77.418 C 252.467 76.991,255.015 76.043,255.865 76.043 C 256.232 76.043,256.618 75.904,256.723 75.734 C 256.828 75.564,257.463 75.425,258.133 75.425 C 258.803 75.425,259.351 75.321,259.351 75.193 C 259.350 75.066,260.046 74.983,260.896 75.009 C 261.746 75.035,262.442 74.931,262.442 74.777 C 262.442 74.623,263.404 74.498,264.580 74.498 C 265.782 74.498,266.765 74.357,266.825 74.177 C 266.896 73.965,270.769 73.834,278.262 73.791 C 289.057 73.728,290.192 73.633,289.181 72.875 C 288.987 72.729,289.041 72.534,289.326 72.351 C 289.577 72.190,289.716 72.016,289.636 71.964 C 288.739 71.385,287.974 71.097,287.330 71.097 C 286.903 71.097,286.553 70.958,286.553 70.788 C 286.553 70.618,286.275 70.479,285.935 70.479 C 285.595 70.479,285.317 70.324,285.317 70.134 C 285.317 69.932,284.994 69.851,284.537 69.938 C 284.108 70.020,283.682 69.967,283.591 69.819 C 283.500 69.672,283.017 69.552,282.517 69.552 C 282.017 69.552,281.607 69.427,281.607 69.275 C 281.607 69.123,281.086 68.919,280.448 68.823 C 275.233 68.032,274.162 67.827,274.336 67.652 C 274.446 67.542,272.789 67.352,270.653 67.228 C 268.517 67.105,266.770 66.882,266.770 66.733 C 266.770 66.583,263.985 66.461,260.581 66.461 L 254.393 66.461 254.583 65.705 L 254.772 64.949 245.779 64.924 C 239.826 64.908,236.785 65.007,236.785 65.216 C 236.785 65.398,235.991 65.533,234.930 65.533 C 233.900 65.533,233.076 65.396,233.076 65.224 C 233.076 65.054,233.563 64.915,234.158 64.915 C 234.753 64.915,235.240 64.795,235.240 64.649 C 235.240 64.356,237.906 63.908,239.490 63.935 C 240.043 63.944,240.495 63.821,240.495 63.661 C 240.495 63.500,241.112 63.369,241.867 63.369 C 242.622 63.369,243.317 63.245,243.412 63.092 C 243.506 62.939,245.464 62.714,247.762 62.591 C 250.061 62.468,252.017 62.245,252.110 62.095 C 252.202 61.946,253.846 61.824,255.763 61.824 C 257.680 61.824,259.337 61.735,259.446 61.625 C 259.829 61.242,282.941 61.725,282.702 62.112 C 282.634 62.223,282.811 62.328,283.097 62.345 C 283.383 62.362,285.530 62.474,287.868 62.595 C 290.207 62.716,292.197 62.939,292.292 63.092 C 292.386 63.245,293.262 63.369,294.238 63.369 C 295.214 63.369,296.161 63.518,296.343 63.700 C 296.926 64.283,299.052 63.920,299.181 63.215 C 299.243 62.875,299.206 62.682,299.097 62.786 C 298.989 62.890,298.104 62.774,297.132 62.528 C 296.159 62.282,294.529 61.949,293.509 61.789 C 292.488 61.630,291.412 61.363,291.117 61.198 C 290.822 61.032,290.169 60.896,289.667 60.896 C 289.165 60.896,288.678 60.774,288.586 60.624 C 288.493 60.475,287.094 60.253,285.476 60.132 C 283.858 60.011,282.535 59.785,282.535 59.631 C 282.535 59.477,281.654 59.351,280.577 59.351 C 279.500 59.351,278.523 59.254,278.404 59.136 C 278.090 58.821,277.578 58.768,272.708 58.536 C 270.279 58.421,268.223 58.215,268.139 58.080 C 267.932 57.744,247.381 57.725,247.174 58.060 M250.850 66.770 C 250.745 66.940,250.285 67.062,249.827 67.042 L 248.995 67.006 249.923 66.770 C 250.433 66.640,250.893 66.517,250.946 66.497 C 250.998 66.477,250.955 66.600,250.850 66.770 M267.388 70.139 C 267.388 70.292,269.231 70.502,271.484 70.606 C 273.736 70.710,276.240 70.828,277.048 70.868 C 277.855 70.909,278.516 71.036,278.516 71.151 C 278.516 71.267,274.656 71.291,269.938 71.205 C 264.887 71.114,259.517 71.192,256.878 71.396 C 254.413 71.586,251.422 71.810,250.232 71.894 C 249.042 71.978,247.770 72.197,247.406 72.379 C 246.934 72.616,246.580 72.616,246.170 72.377 C 245.643 72.072,245.641 72.043,246.136 72.034 C 246.434 72.029,246.677 71.816,246.677 71.561 C 246.677 71.306,246.851 71.080,247.063 71.060 C 247.276 71.039,247.937 70.965,248.532 70.894 C 249.127 70.823,251.665 70.688,254.173 70.593 C 256.681 70.499,258.733 70.295,258.733 70.141 C 258.733 69.987,260.680 69.861,263.060 69.861 C 265.440 69.861,267.388 69.986,267.388 70.139 M282.380 71.716 C 282.625 72.112,281.293 72.112,280.680 71.716 C 280.327 71.488,280.452 71.415,281.203 71.411 C 281.745 71.409,282.275 71.546,282.380 71.716 M244.822 72.643 C 244.822 72.813,244.474 72.952,244.049 72.952 C 243.624 72.952,243.277 72.813,243.277 72.643 C 243.277 72.473,243.624 72.334,244.049 72.334 C 244.474 72.334,244.822 72.473,244.822 72.643 M235.240 87.481 C 235.240 87.651,234.718 87.780,234.080 87.768 C 233.150 87.751,233.043 87.694,233.539 87.481 C 234.398 87.112,235.240 87.112,235.240 87.481 M231.195 87.592 C 230.867 87.875,227.821 88.041,227.821 87.775 C 227.821 87.613,228.609 87.481,229.572 87.481 C 230.536 87.481,231.266 87.531,231.195 87.592 M142.813 89.920 C 142.813 90.072,143.152 90.281,143.565 90.385 C 144.278 90.563,145.920 92.416,145.384 92.436 C 145.245 92.442,145.349 92.616,145.614 92.823 C 146.331 93.382,146.599 94.281,146.049 94.281 C 145.799 94.281,145.630 94.129,145.672 93.943 C 145.858 93.132,144.760 92.937,143.811 93.613 C 143.294 93.981,142.740 94.281,142.579 94.281 C 142.154 94.281,140.363 92.507,140.575 92.295 C 140.673 92.196,140.383 92.146,139.929 92.184 C 139.475 92.222,139.104 92.361,139.104 92.494 C 139.104 92.627,138.964 92.736,138.794 92.736 C 138.126 92.736,138.503 91.092,139.335 90.376 C 140.189 89.642,142.813 89.298,142.813 89.920 M146.213 106.028 C 146.213 106.538,146.074 106.955,145.904 106.955 C 145.560 106.955,145.478 105.630,145.801 105.307 C 146.150 104.957,146.213 105.067,146.213 106.028 M184.147 108.114 C 184.076 108.582,184.018 108.199,184.018 107.264 C 184.018 106.329,184.076 105.947,184.147 106.414 C 184.218 106.882,184.218 107.647,184.147 108.114 M215.261 110.112 C 215.178 110.246,214.763 110.355,214.338 110.355 C 213.909 110.355,213.649 110.220,213.753 110.051 C 213.856 109.884,214.272 109.774,214.676 109.808 C 215.081 109.841,215.344 109.978,215.261 110.112 M219.861 109.955 C 219.478 110.029,218.852 110.029,218.470 109.955 C 218.087 109.882,218.400 109.821,219.165 109.821 C 219.930 109.821,220.243 109.882,219.861 109.955 M205.997 128.235 C 206.085 128.377,205.546 128.517,204.798 128.546 C 204.051 128.574,203.353 128.457,203.247 128.286 C 203.129 128.095,203.592 127.975,204.446 127.975 C 205.211 127.975,205.909 128.092,205.997 128.235 M215.404 130.798 C 215.461 130.946,215.848 131.066,216.264 131.066 C 216.680 131.066,217.101 131.275,217.199 131.530 C 217.297 131.785,217.688 131.994,218.069 131.994 C 218.449 131.994,219.007 132.267,219.309 132.600 C 219.610 132.933,219.945 133.183,220.052 133.156 C 220.363 133.077,223.268 134.648,224.114 135.351 C 224.725 135.859,224.776 135.994,224.361 136.002 C 224.074 136.008,223.751 135.871,223.644 135.698 C 223.538 135.525,223.299 135.477,223.115 135.591 C 222.927 135.707,222.867 135.656,222.979 135.476 C 223.166 135.174,221.461 134.158,220.767 134.158 C 220.595 134.158,220.407 134.026,220.350 133.865 C 220.294 133.704,219.760 133.488,219.165 133.385 C 218.570 133.282,218.037 133.066,217.980 132.905 C 217.924 132.744,217.541 132.612,217.130 132.612 C 216.719 132.612,216.383 132.503,216.383 132.369 C 216.383 132.235,216.140 132.098,215.842 132.064 C 214.314 131.892,214.116 131.768,214.081 130.964 C 214.045 130.156,215.107 130.024,215.404 130.798 M191.654 135.721 C 191.654 136.072,191.515 136.272,191.345 136.167 C 191.175 136.062,191.036 135.775,191.036 135.530 C 191.036 135.285,191.175 135.085,191.345 135.085 C 191.515 135.085,191.654 135.371,191.654 135.721 M197.836 135.685 C 197.836 136.015,197.697 136.371,197.527 136.476 C 197.352 136.584,197.218 136.325,197.218 135.876 C 197.218 135.441,197.357 135.085,197.527 135.085 C 197.697 135.085,197.836 135.355,197.836 135.685 M225.786 136.520 C 226.044 137.195,225.701 137.508,225.336 136.931 C 224.970 136.353,224.962 136.012,225.315 136.012 C 225.467 136.012,225.678 136.241,225.786 136.520 M227.584 138.022 C 228.081 138.698,227.778 138.753,227.048 138.118 C 226.180 137.364,225.975 136.628,226.816 137.288 C 227.114 137.522,227.459 137.852,227.584 138.022 M168.981 138.794 C 168.569 138.956,168.034 139.387,166.736 140.605 C 166.309 141.005,165.873 141.246,165.767 141.141 C 165.661 141.035,165.897 140.707,166.291 140.412 C 166.684 140.117,167.440 139.442,167.970 138.911 C 168.601 138.279,169.010 138.066,169.154 138.293 C 169.275 138.484,169.197 138.709,168.981 138.794 M165.224 141.946 C 164.884 142.139,164.300 142.621,163.925 143.018 C 163.551 143.415,163.064 143.740,162.843 143.739 C 162.623 143.738,162.929 143.258,163.524 142.673 C 164.119 142.088,164.884 141.606,165.224 141.602 L 165.842 141.595 165.224 141.946 M159.812 146.524 C 158.648 147.564,158.292 147.718,158.926 146.909 C 159.623 146.019,160.521 145.271,160.690 145.440 C 160.778 145.528,160.382 146.015,159.812 146.524 M173.879 148.068 C 173.990 148.248,173.707 148.368,173.202 148.355 C 172.373 148.335,172.467 148.208,173.629 147.781 C 173.662 147.769,173.774 147.898,173.879 148.068 M173.033 152.917 C 172.737 152.995,172.181 152.997,171.796 152.923 C 171.412 152.849,171.654 152.786,172.334 152.783 C 173.014 152.779,173.329 152.840,173.033 152.917 M178.671 154.571 C 178.671 154.708,179.089 154.911,179.601 155.024 C 180.112 155.136,180.452 155.356,180.355 155.512 C 180.259 155.668,180.382 155.796,180.629 155.796 C 180.876 155.796,181.161 156.013,181.263 156.279 C 181.365 156.545,181.577 156.683,181.735 156.586 C 181.892 156.488,182.206 156.587,182.433 156.804 C 182.659 157.022,183.234 157.501,183.710 157.869 C 184.186 158.237,184.569 158.651,184.560 158.790 C 184.551 158.928,184.648 159.042,184.776 159.042 C 185.113 159.042,187.140 161.031,186.974 161.197 C 186.896 161.275,186.472 161.004,186.031 160.595 C 185.590 160.186,185.154 159.926,185.062 160.017 C 184.971 160.109,184.714 159.892,184.491 159.536 C 184.268 159.179,183.807 158.885,183.465 158.882 C 183.001 158.879,182.950 158.811,183.261 158.613 C 183.553 158.428,183.346 158.287,182.565 158.141 C 181.953 158.026,181.453 157.799,181.453 157.637 C 181.453 157.474,181.256 157.342,181.015 157.342 C 180.774 157.342,180.531 157.203,180.474 157.034 C 180.417 156.865,179.745 156.641,178.980 156.536 C 177.495 156.333,177.039 156.106,177.666 155.882 C 178.105 155.726,178.198 154.869,177.777 154.869 C 177.625 154.869,177.429 154.682,177.341 154.453 C 177.227 154.156,177.393 154.078,177.926 154.180 C 178.336 154.258,178.671 154.434,178.671 154.571 M189.898 164.442 C 189.669 164.694,189.212 163.724,189.409 163.405 C 189.512 163.238,189.694 163.370,189.814 163.699 C 189.933 164.028,189.971 164.362,189.898 164.442 M197.257 171.716 C 197.314 172.868,197.351 173.034,197.604 173.287 C 197.945 173.628,197.887 174.652,197.527 174.652 C 197.357 174.652,197.218 174.374,197.218 174.034 C 197.218 173.694,197.031 173.416,196.802 173.416 C 196.204 173.416,194.963 172.267,195.181 171.916 C 195.281 171.753,195.642 171.692,195.982 171.781 C 196.411 171.893,196.600 171.790,196.600 171.443 C 196.600 170.622,197.215 170.878,197.257 171.716 M138.176 176.816 C 138.176 177.653,138.040 178.053,137.755 178.053 C 137.469 178.053,137.378 177.781,137.471 177.202 C 137.793 175.202,138.176 174.992,138.176 176.816 M163.215 189.335 C 162.784 189.854,162.287 189.949,162.287 189.513 C 162.287 189.355,162.531 189.163,162.828 189.085 C 163.126 189.007,163.421 188.927,163.485 188.908 C 163.548 188.888,163.426 189.080,163.215 189.335 M162.906 192.427 C 162.906 193.002,162.760 193.562,162.581 193.673 C 162.369 193.804,162.281 193.388,162.329 192.471 C 162.411 190.874,162.906 190.835,162.906 192.427 M194.127 195.981 C 194.127 196.160,193.148 196.291,191.808 196.291 C 190.469 196.291,189.490 196.160,189.490 195.981 C 189.490 195.803,190.469 195.672,191.808 195.672 C 193.148 195.672,194.127 195.803,194.127 195.981 M196.136 196.600 C 196.241 196.770,196.118 196.909,195.863 196.909 C 195.608 196.909,195.314 196.770,195.209 196.600 C 195.104 196.430,195.226 196.291,195.481 196.291 C 195.736 196.291,196.031 196.430,196.136 196.600 M186.881 197.073 C 186.551 197.323,186.064 197.525,185.799 197.522 C 185.498 197.520,185.608 197.356,186.090 197.089 C 187.123 196.516,187.631 196.506,186.881 197.073 M214.529 224.884 C 214.529 225.309,214.389 225.657,214.219 225.657 C 213.874 225.657,213.796 224.638,214.116 224.317 C 214.457 223.977,214.529 224.075,214.529 224.884 M213.630 227.759 C 213.441 228.218,213.253 229.396,213.212 230.376 C 213.149 231.887,213.079 232.078,212.751 231.631 C 212.308 231.025,212.234 229.985,212.634 229.985 C 212.782 229.985,212.999 229.262,213.116 228.379 C 213.348 226.636,213.634 225.910,213.843 226.538 C 213.914 226.751,213.818 227.300,213.630 227.759 M214.032 232.947 C 214.148 233.248,214.078 233.389,213.853 233.314 C 213.391 233.160,213.136 232.457,213.542 232.457 C 213.708 232.457,213.929 232.678,214.032 232.947 M216.657 236.399 C 217.194 237.419,216.640 237.245,215.920 236.167 C 215.580 235.658,215.197 235.241,215.070 235.240 C 214.942 235.240,214.838 234.951,214.838 234.598 C 214.838 233.886,215.876 234.914,216.657 236.399 M126.442 245.580 C 126.237 245.827,126.160 246.314,126.270 246.662 C 126.435 247.180,126.336 247.295,125.729 247.295 C 124.613 247.295,124.556 247.035,125.457 246.060 C 126.285 245.163,127.129 244.752,126.442 245.580 M173.500 246.079 C 173.378 246.546,173.241 246.626,172.991 246.375 C 172.709 246.094,173.114 245.495,173.619 245.445 C 173.645 245.443,173.592 245.728,173.500 246.079 M128.109 247.573 C 128.438 247.701,128.576 247.888,128.415 247.987 C 128.254 248.087,127.855 247.971,127.526 247.731 C 126.886 247.263,127.141 247.194,128.109 247.573 M179.795 247.819 C 179.461 248.153,178.671 248.200,178.671 247.886 C 178.671 247.731,178.972 247.604,179.341 247.604 C 179.709 247.604,179.914 247.701,179.795 247.819 " stroke="none" fill="#9c2414" fill-rule="evenodd"></path><path id="path1" d="M233.620 87.699 C 234.005 87.773,234.561 87.770,234.857 87.693 C 235.152 87.616,234.838 87.555,234.158 87.559 C 233.478 87.562,233.236 87.625,233.620 87.699 M114.242 102.495 C 113.914 102.734,113.706 102.990,113.779 103.063 C 113.852 103.136,114.179 102.999,114.507 102.760 C 114.834 102.521,115.042 102.265,114.969 102.192 C 114.896 102.119,114.569 102.256,114.242 102.495 M184.018 107.264 C 184.018 108.199,184.076 108.582,184.147 108.114 C 184.218 107.647,184.218 106.882,184.147 106.414 C 184.076 105.947,184.018 106.329,184.018 107.264 M218.470 109.955 C 218.852 110.029,219.478 110.029,219.861 109.955 C 220.243 109.882,219.930 109.821,219.165 109.821 C 218.400 109.821,218.087 109.882,218.470 109.955 M163.060 143.122 C 162.590 143.642,162.576 143.740,162.976 143.740 C 163.238 143.740,163.525 143.462,163.614 143.122 C 163.702 142.782,163.740 142.504,163.697 142.504 C 163.655 142.504,163.368 142.782,163.060 143.122 M171.796 152.923 C 172.181 152.997,172.737 152.995,173.033 152.917 C 173.329 152.840,173.014 152.779,172.334 152.783 C 171.654 152.786,171.412 152.849,171.796 152.923 M189.409 163.405 C 189.212 163.724,189.669 164.694,189.898 164.442 C 189.971 164.362,189.933 164.028,189.814 163.699 C 189.694 163.370,189.512 163.238,189.409 163.405 M242.139 230.912 C 242.139 232.017,242.195 232.469,242.264 231.917 C 242.332 231.364,242.332 230.460,242.264 229.907 C 242.195 229.355,242.139 229.807,242.139 230.912 M214.838 234.570 C 214.838 234.970,215.031 235.240,215.320 235.240 C 215.605 235.240,215.712 235.385,215.581 235.596 C 215.440 235.824,215.497 235.869,215.737 235.720 C 216.020 235.546,215.975 235.321,215.557 234.822 C 215.250 234.457,214.963 234.100,214.918 234.029 C 214.874 233.958,214.838 234.201,214.838 234.570 " stroke="none" fill="#a02414" fill-rule="evenodd"></path><path id="path2" d="M233.620 87.699 C 234.005 87.773,234.561 87.770,234.857 87.693 C 235.152 87.616,234.838 87.555,234.158 87.559 C 233.478 87.562,233.236 87.625,233.620 87.699 M114.242 102.495 C 113.914 102.734,113.706 102.990,113.779 103.063 C 113.852 103.136,114.179 102.999,114.507 102.760 C 114.834 102.521,115.042 102.265,114.969 102.192 C 114.896 102.119,114.569 102.256,114.242 102.495 M184.018 107.264 C 184.018 108.199,184.076 108.582,184.147 108.114 C 184.218 107.647,184.218 106.882,184.147 106.414 C 184.076 105.947,184.018 106.329,184.018 107.264 M218.470 109.955 C 218.852 110.029,219.478 110.029,219.861 109.955 C 220.243 109.882,219.930 109.821,219.165 109.821 C 218.400 109.821,218.087 109.882,218.470 109.955 M163.060 143.122 C 162.590 143.642,162.576 143.740,162.976 143.740 C 163.238 143.740,163.525 143.462,163.614 143.122 C 163.702 142.782,163.740 142.504,163.697 142.504 C 163.655 142.504,163.368 142.782,163.060 143.122 M171.796 152.923 C 172.181 152.997,172.737 152.995,173.033 152.917 C 173.329 152.840,173.014 152.779,172.334 152.783 C 171.654 152.786,171.412 152.849,171.796 152.923 M189.409 163.405 C 189.212 163.724,189.669 164.694,189.898 164.442 C 189.971 164.362,189.933 164.028,189.814 163.699 C 189.694 163.370,189.512 163.238,189.409 163.405 M242.139 230.912 C 242.139 232.017,242.195 232.469,242.264 231.917 C 242.332 231.364,242.332 230.460,242.264 229.907 C 242.195 229.355,242.139 229.807,242.139 230.912 M214.838 234.570 C 214.838 234.970,215.031 235.240,215.320 235.240 C 215.605 235.240,215.712 235.385,215.581 235.596 C 215.440 235.824,215.497 235.869,215.737 235.720 C 216.020 235.546,215.975 235.321,215.557 234.822 C 215.250 234.457,214.963 234.100,214.918 234.029 C 214.874 233.958,214.838 234.201,214.838 234.570 " stroke="none" fill="#a02414" fill-rule="evenodd"></path><path id="path3" d="M233.620 87.699 C 234.005 87.773,234.561 87.770,234.857 87.693 C 235.152 87.616,234.838 87.555,234.158 87.559 C 233.478 87.562,233.236 87.625,233.620 87.699 M114.242 102.495 C 113.914 102.734,113.706 102.990,113.779 103.063 C 113.852 103.136,114.179 102.999,114.507 102.760 C 114.834 102.521,115.042 102.265,114.969 102.192 C 114.896 102.119,114.569 102.256,114.242 102.495 M184.018 107.264 C 184.018 108.199,184.076 108.582,184.147 108.114 C 184.218 107.647,184.218 106.882,184.147 106.414 C 184.076 105.947,184.018 106.329,184.018 107.264 M218.470 109.955 C 218.852 110.029,219.478 110.029,219.861 109.955 C 220.243 109.882,219.930 109.821,219.165 109.821 C 218.400 109.821,218.087 109.882,218.470 109.955 M163.060 143.122 C 162.590 143.642,162.576 143.740,162.976 143.740 C 163.238 143.740,163.525 143.462,163.614 143.122 C 163.702 142.782,163.740 142.504,163.697 142.504 C 163.655 142.504,163.368 142.782,163.060 143.122 M171.796 152.923 C 172.181 152.997,172.737 152.995,173.033 152.917 C 173.329 152.840,173.014 152.779,172.334 152.783 C 171.654 152.786,171.412 152.849,171.796 152.923 M189.409 163.405 C 189.212 163.724,189.669 164.694,189.898 164.442 C 189.971 164.362,189.933 164.028,189.814 163.699 C 189.694 163.370,189.512 163.238,189.409 163.405 M242.139 230.912 C 242.139 232.017,242.195 232.469,242.264 231.917 C 242.332 231.364,242.332 230.460,242.264 229.907 C 242.195 229.355,242.139 229.807,242.139 230.912 M214.838 234.570 C 214.838 234.970,215.031 235.240,215.320 235.240 C 215.605 235.240,215.712 235.385,215.581 235.596 C 215.440 235.824,215.497 235.869,215.737 235.720 C 216.020 235.546,215.975 235.321,215.557 234.822 C 215.250 234.457,214.963 234.100,214.918 234.029 C 214.874 233.958,214.838 234.201,214.838 234.570 " stroke="none" fill="#a02414" fill-rule="evenodd"></path><path id="path4" d="M233.620 87.699 C 234.005 87.773,234.561 87.770,234.857 87.693 C 235.152 87.616,234.838 87.555,234.158 87.559 C 233.478 87.562,233.236 87.625,233.620 87.699 M114.242 102.495 C 113.914 102.734,113.706 102.990,113.779 103.063 C 113.852 103.136,114.179 102.999,114.507 102.760 C 114.834 102.521,115.042 102.265,114.969 102.192 C 114.896 102.119,114.569 102.256,114.242 102.495 M184.018 107.264 C 184.018 108.199,184.076 108.582,184.147 108.114 C 184.218 107.647,184.218 106.882,184.147 106.414 C 184.076 105.947,184.018 106.329,184.018 107.264 M218.470 109.955 C 218.852 110.029,219.478 110.029,219.861 109.955 C 220.243 109.882,219.930 109.821,219.165 109.821 C 218.400 109.821,218.087 109.882,218.470 109.955 M163.060 143.122 C 162.590 143.642,162.576 143.740,162.976 143.740 C 163.238 143.740,163.525 143.462,163.614 143.122 C 163.702 142.782,163.740 142.504,163.697 142.504 C 163.655 142.504,163.368 142.782,163.060 143.122 M171.796 152.923 C 172.181 152.997,172.737 152.995,173.033 152.917 C 173.329 152.840,173.014 152.779,172.334 152.783 C 171.654 152.786,171.412 152.849,171.796 152.923 M189.409 163.405 C 189.212 163.724,189.669 164.694,189.898 164.442 C 189.971 164.362,189.933 164.028,189.814 163.699 C 189.694 163.370,189.512 163.238,189.409 163.405 M242.139 230.912 C 242.139 232.017,242.195 232.469,242.264 231.917 C 242.332 231.364,242.332 230.460,242.264 229.907 C 242.195 229.355,242.139 229.807,242.139 230.912 M214.838 234.570 C 214.838 234.970,215.031 235.240,215.320 235.240 C 215.605 235.240,215.712 235.385,215.581 235.596 C 215.440 235.824,215.497 235.869,215.737 235.720 C 216.020 235.546,215.975 235.321,215.557 234.822 C 215.250 234.457,214.963 234.100,214.918 234.029 C 214.874 233.958,214.838 234.201,214.838 234.570 " stroke="none" fill="#a02414" fill-rule="evenodd"></path></g></svg>